<svg width="30" height="30" viewBox="0 0 30 30" fill="none" xmlns="http://www.w3.org/2000/svg">
<rect width="30" height="30" rx="15" fill="url(#paint0_linear_252_92)"/>
<g clip-path="url(#clip0_252_92)">
<path d="M11.3337 17.6667H10.0003C9.81633 17.6667 9.66699 17.5173 9.66699 17.3333C9.66699 17.1493 9.81633 17 10.0003 17H11.3337C11.5177 17 11.667 17.1493 11.667 17.3333C11.667 17.5173 11.5177 17.6667 11.3337 17.6667Z" fill="white"/>
<path d="M22.167 17.6665H21.3337C21.1497 17.6665 21.0004 17.5172 21.0004 17.3332C21.0004 17.1492 21.1497 16.9998 21.3337 16.9998H21.8904L22.3397 14.6052C22.3337 13.3798 21.287 12.3332 20.0004 12.3332H17.8117L16.751 16.9998H18.667C18.851 16.9998 19.0004 17.1492 19.0004 17.3332C19.0004 17.5172 18.851 17.6665 18.667 17.6665H16.3337C16.2324 17.6665 16.1364 17.6205 16.073 17.5412C16.0097 17.4625 15.9857 17.3585 16.0084 17.2598L17.2204 11.9265C17.255 11.7738 17.3897 11.6665 17.5457 11.6665H20.0004C21.6544 11.6665 23.0004 13.0125 23.0004 14.6665L22.4944 17.3945C22.465 17.5525 22.3277 17.6665 22.167 17.6665Z" fill="white"/>
<path d="M19.9997 18.9998C19.081 18.9998 18.333 18.2525 18.333 17.3332C18.333 16.4138 19.081 15.6665 19.9997 15.6665C20.9183 15.6665 21.6663 16.4138 21.6663 17.3332C21.6663 18.2525 20.9183 18.9998 19.9997 18.9998ZM19.9997 16.3332C19.4483 16.3332 18.9997 16.7818 18.9997 17.3332C18.9997 17.8845 19.4483 18.3332 19.9997 18.3332C20.551 18.3332 20.9997 17.8845 20.9997 17.3332C20.9997 16.7818 20.551 16.3332 19.9997 16.3332Z" fill="white"/>
<path d="M12.6667 18.9998C11.748 18.9998 11 18.2525 11 17.3332C11 16.4138 11.748 15.6665 12.6667 15.6665C13.5853 15.6665 14.3333 16.4138 14.3333 17.3332C14.3333 18.2525 13.5853 18.9998 12.6667 18.9998ZM12.6667 16.3332C12.1153 16.3332 11.6667 16.7818 11.6667 17.3332C11.6667 17.8845 12.1153 18.3332 12.6667 18.3332C13.218 18.3332 13.6667 17.8845 13.6667 17.3332C13.6667 16.7818 13.218 16.3332 12.6667 16.3332Z" fill="white"/>
<path d="M11.333 11.6667H8.66634C8.48234 11.6667 8.33301 11.5173 8.33301 11.3333C8.33301 11.1493 8.48234 11 8.66634 11H11.333C11.517 11 11.6663 11.1493 11.6663 11.3333C11.6663 11.5173 11.517 11.6667 11.333 11.6667Z" fill="white"/>
<path d="M11.3337 13.6667H8.00033C7.81633 13.6667 7.66699 13.5173 7.66699 13.3333C7.66699 13.1493 7.81633 13 8.00033 13H11.3337C11.5177 13 11.667 13.1493 11.667 13.3333C11.667 13.5173 11.5177 13.6667 11.3337 13.6667Z" fill="white"/>
<path d="M11.3333 15.6667H7.33333C7.14933 15.6667 7 15.5173 7 15.3333C7 15.1493 7.14933 15 7.33333 15H11.3333C11.5173 15 11.6667 15.1493 11.6667 15.3333C11.6667 15.5173 11.5173 15.6667 11.3333 15.6667Z" fill="white"/>
<path d="M16.3337 17.6665H14.0003C13.8163 17.6665 13.667 17.5172 13.667 17.3332C13.667 17.1492 13.8163 16.9998 14.0003 16.9998H16.0677L17.5823 10.3332H10.0003C9.81633 10.3332 9.66699 10.1838 9.66699 9.99984C9.66699 9.81584 9.81633 9.6665 10.0003 9.6665H18.0003C18.1017 9.6665 18.1977 9.7125 18.261 9.79184C18.3243 9.8705 18.3483 9.9745 18.3257 10.0732L16.659 17.4065C16.6243 17.5592 16.489 17.6665 16.3337 17.6665Z" fill="white"/>
</g>
<defs>
<linearGradient id="paint0_linear_252_92" x1="15" y1="0" x2="15" y2="30" gradientUnits="userSpaceOnUse">
<stop stop-color="#D583FC"/>
<stop offset="1" stop-color="#B01660"/>
</linearGradient>
<clipPath id="clip0_252_92">
<rect width="16" height="16" fill="white" transform="translate(7 5)"/>
</clipPath>
</defs>
</svg>
