<svg width="30" height="30" viewBox="0 0 30 30" fill="none" xmlns="http://www.w3.org/2000/svg">
<rect width="30" height="30" rx="15" fill="url(#paint0_linear_252_82)"/>
<g clip-path="url(#clip0_252_82)">
<path d="M20.2121 13.1529C20.2264 13.0893 20.234 13.0241 20.234 12.9573V11.4254C20.234 10.0987 17.34 9.38281 14.617 9.38281C11.894 9.38281 9 10.0987 9 11.4254C9 11.4826 9.00574 11.5386 9.01627 11.5935C9.0063 11.6208 9 11.6499 9 11.6807V12.9573C9 13.3817 9.29653 13.7435 9.78853 14.0394C9.77381 14.1038 9.76596 14.1687 9.76596 14.2339C9.76596 14.2911 9.7717 14.3471 9.78223 14.402C9.77224 14.4294 9.76596 14.4585 9.76596 14.4892V15.7658C9.76596 15.883 9.789 15.9954 9.83205 16.103C9.36091 16.4521 9.25533 16.8016 9.25533 17.0424C9.25533 17.0996 9.26107 17.1556 9.27159 17.2106C9.26161 17.2379 9.25533 17.267 9.25533 17.2977V18.5743C9.25533 19.901 12.1494 20.6169 14.8724 20.6169C17.5954 20.6169 20.4894 19.901 20.4894 18.5743V17.0424C20.4894 16.9291 20.4667 16.8171 20.4228 16.7078C20.787 16.4401 21 16.1254 21 15.7658V14.2339V14.2339C21 13.9527 20.8591 13.5443 20.2121 13.1529ZM10.9065 10.4038C11.8938 10.0747 13.2116 9.89347 14.617 9.89347C16.0224 9.89347 17.3402 10.0747 18.3275 10.4038C19.2016 10.6952 19.7234 11.0771 19.7234 11.4254C19.7234 11.7737 19.2016 12.1556 18.3275 12.4469C17.3402 12.776 16.0224 12.9573 14.617 12.9573C13.2116 12.9573 11.8938 12.776 10.9065 12.4469C10.0324 12.1556 9.51063 11.7737 9.51063 11.4254C9.51063 11.0771 10.0324 10.6952 10.9065 10.4038ZM19.7234 12.3166V12.9573C19.7234 13.2523 19.3479 13.5713 18.7021 13.8391V12.8555C19.1137 12.7032 19.4628 12.5233 19.7234 12.3166ZM18.1915 13.0217V14.022C17.8789 14.1191 17.5362 14.202 17.1702 14.2698V13.2536C17.53 13.1901 17.8733 13.1127 18.1915 13.0217ZM16.6596 13.3331V14.3529C16.332 14.3988 15.9903 14.4336 15.6383 14.4564V13.4347C15.9843 13.4122 16.3268 13.3782 16.6596 13.3331ZM15.1277 13.4596V14.4811C14.959 14.4864 14.7887 14.4892 14.617 14.4892C14.4454 14.4892 14.275 14.4864 14.1064 14.4811V13.4596C14.2768 13.4651 14.4472 13.4679 14.617 13.4679C14.7868 13.4679 14.9573 13.4651 15.1277 13.4596ZM13.5957 13.4347V14.4565C13.2437 14.4336 12.902 14.3988 12.5745 14.3529V13.3331C12.9073 13.3782 13.2498 13.4122 13.5957 13.4347ZM12.0638 13.2536V14.2699C11.6979 14.202 11.3551 14.1191 11.0426 14.022V13.0217C11.3607 13.1127 11.704 13.1901 12.0638 13.2536ZM9.51063 12.9573V12.3166C9.77121 12.5233 10.1204 12.7032 10.5319 12.8555V13.8391C9.88615 13.5713 9.51063 13.2523 9.51063 12.9573ZM10.2766 15.1251C10.5372 15.3317 10.8863 15.5116 11.2979 15.6639V16.6476C10.6521 16.3798 10.2766 16.0608 10.2766 15.7658V15.1251ZM10.7872 19.4561C10.1415 19.1883 9.76596 18.8694 9.76596 18.5743V17.9337C10.0265 18.1403 10.3757 18.3202 10.7872 18.4725V19.4561ZM12.3191 19.8869C11.9532 19.819 11.6105 19.7361 11.2979 19.6391V18.6387C11.616 18.7297 11.9594 18.8071 12.3191 18.8706V19.8869ZM13.8511 20.0735C13.4991 20.0506 13.1573 20.0158 12.8298 19.97V18.9501C13.1626 18.9952 13.5051 19.0292 13.8511 19.0517V20.0735V20.0735ZM15.383 20.0981C15.2143 20.1034 15.044 20.1062 14.8723 20.1062C14.7007 20.1062 14.5303 20.1034 14.3617 20.0981V19.0766C14.5321 19.0822 14.7025 19.085 14.8723 19.085C15.0421 19.085 15.2126 19.0822 15.383 19.0766V20.0981ZM16.9149 19.97C16.5874 20.0158 16.2456 20.0506 15.8936 20.0735V19.0517C16.2396 19.0292 16.5821 18.9952 16.9149 18.9501V19.97ZM18.4468 19.639C18.1342 19.7361 17.7915 19.819 17.4255 19.8869V18.8706C17.7854 18.8071 18.1287 18.7297 18.4468 18.6387V19.639ZM19.9787 18.5743C19.9787 18.8694 19.6032 19.1883 18.9575 19.4561V18.4725C19.369 18.3202 19.7182 18.1403 19.9787 17.9337V18.5743ZM18.5829 18.0639C17.5955 18.393 16.2778 18.5743 14.8724 18.5743C13.4669 18.5743 12.1491 18.393 11.1618 18.0639C10.2878 17.7726 9.76598 17.3907 9.76598 17.0424C9.76598 16.8425 9.93902 16.6598 10.1231 16.5219C10.9782 17.3622 13.2337 17.8084 15.383 17.8084C17.1018 17.8084 18.8884 17.523 19.9726 16.979C19.9764 17.0002 19.9788 17.0213 19.9788 17.0424C19.9787 17.3907 19.4569 17.7726 18.5829 18.0639ZM11.8085 16.8305V15.8302C12.1267 15.9211 12.47 15.9986 12.8298 16.0621V17.0784C12.4638 17.0105 12.1211 16.9276 11.8085 16.8305ZM13.3404 17.1615V16.1416C13.6733 16.1867 14.0157 16.2206 14.3617 16.2432V17.265C14.0097 17.2421 13.668 17.2073 13.3404 17.1615ZM14.8723 17.2896V16.2681C15.0427 16.2736 15.2132 16.2764 15.383 16.2764C15.5528 16.2764 15.7232 16.2736 15.8936 16.2681V17.2896C15.725 17.2949 15.5546 17.2977 15.383 17.2977C15.2113 17.2977 15.041 17.2949 14.8723 17.2896ZM16.4043 17.265V16.2432C16.7502 16.2206 17.0927 16.1867 17.4255 16.1416V17.1614C17.098 17.2073 16.7563 17.2421 16.4043 17.265ZM17.9362 17.0784V16.0621C18.296 15.9986 18.6393 15.9211 18.9574 15.8302V16.8305C18.6448 16.9276 18.3021 17.0105 17.9362 17.0784ZM20.4894 15.7658C20.4894 16.0609 20.1139 16.3798 19.4681 16.6476V15.664C19.8797 15.5116 20.2288 15.3317 20.4894 15.1251V15.7658ZM19.0935 15.2554C18.1062 15.5845 16.7884 15.7658 15.383 15.7658C13.9776 15.7658 12.6597 15.5845 11.6725 15.2554C10.8434 14.9791 10.3322 14.6213 10.2816 14.288C11.378 14.7555 13.0265 14.9998 14.617 14.9998C16.8553 14.9998 19.2087 14.516 19.9758 13.607C20.3082 13.8135 20.4894 14.033 20.4894 14.2339C20.4894 14.5822 19.9676 14.9641 19.0935 15.2554Z" fill="#7D7D7D"/>
</g>
<defs>
<linearGradient id="paint0_linear_252_82" x1="15" y1="0" x2="15" y2="30" gradientUnits="userSpaceOnUse">
<stop stop-color="white"/>
<stop offset="1" stop-color="#FFEA03"/>
</linearGradient>
<clipPath id="clip0_252_82">
<rect width="12" height="12" fill="white" transform="translate(9 9)"/>
</clipPath>
</defs>
</svg>
