<svg width="30" height="30" viewBox="0 0 30 30" fill="none" xmlns="http://www.w3.org/2000/svg">
<rect width="30" height="30" rx="15" fill="url(#paint0_linear_13_17)"/>
<path d="M12.5 11.5625C12.6725 11.5625 12.8125 11.4225 12.8125 11.25C12.8125 11.0775 12.6725 10.9375 12.5 10.9375C12.3275 10.9375 12.1875 11.0775 12.1875 11.25C12.1875 11.4225 12.3275 11.5625 12.5 11.5625Z" fill="white"/>
<path d="M12.5 13.4375C12.6725 13.4375 12.8125 13.2975 12.8125 13.125C12.8125 12.9525 12.6725 12.8125 12.5 12.8125C12.3275 12.8125 12.1875 12.9525 12.1875 13.125C12.1875 13.2975 12.3275 13.4375 12.5 13.4375Z" fill="white"/>
<path d="M11.875 23H19.375C20.5812 23 21.5625 22.0187 21.5625 20.8125C21.5625 20.6399 21.4226 20.5 21.25 20.5H20.3125V8.5625C20.3125 7.70093 19.6116 7 18.75 7C18.75 7 9.75806 7 9.6875 7C8.99829 7 8.4375 7.56079 8.4375 8.25V9.8125C8.4375 9.98511 8.57739 10.125 8.75 10.125H10.3125V21.3706C10.3125 22.2198 10.959 23 11.875 23ZM19.375 22.375H13.1243C13.3208 22.1136 13.4375 21.7858 13.4375 21.4343V21.1218H20.9061C20.761 21.8342 20.1295 22.375 19.375 22.375ZM19.6875 8.5625V20.5H13.125C12.9524 20.5 12.8125 20.6399 12.8125 20.8125V21.4375C12.8125 21.9545 12.392 22.375 11.875 22.375C11.3147 22.375 10.9375 21.8901 10.9375 21.3706V8.25C10.9375 8.02466 10.8774 7.81055 10.7704 7.625H18.75C19.267 7.625 19.6875 8.04553 19.6875 8.5625ZM9.0625 9.5V8.25C9.0625 7.9054 9.3429 7.625 9.6875 7.625C10.0292 7.625 10.3125 7.90051 10.3125 8.25V9.5H9.0625Z" fill="white"/>
<path d="M15.3125 15.9375C15.3125 16.4785 15.5388 16.9788 15.9375 17.334V19.375C15.9375 19.4902 16.001 19.5962 16.1025 19.6505C16.2041 19.705 16.3275 19.699 16.4233 19.635L17.1875 19.1256L17.9517 19.635C18.0477 19.6991 18.171 19.7048 18.2725 19.6505C18.374 19.5962 18.4375 19.4902 18.4375 19.375V17.334C18.8363 16.9786 19.0625 16.4784 19.0625 15.9375C19.0625 14.9037 18.2214 14.0625 17.1875 14.0625C16.1536 14.0625 15.3125 14.9036 15.3125 15.9375V15.9375ZM17.3608 18.49C17.2559 18.42 17.1191 18.42 17.0142 18.49L16.5625 18.7911V17.7058C16.7611 17.776 16.9714 17.8125 17.1875 17.8125C17.4036 17.8125 17.6139 17.776 17.8125 17.7058V18.7911L17.3608 18.49ZM18.4375 15.9375C18.4375 16.6429 17.863 17.1875 17.1875 17.1875C16.5117 17.1875 15.9375 16.6433 15.9375 15.9375C15.9375 15.2483 16.4983 14.6875 17.1875 14.6875C17.8767 14.6875 18.4375 15.2483 18.4375 15.9375Z" fill="white"/>
<path d="M12.5 9.6875H18.125C18.2976 9.6875 18.4375 9.54761 18.4375 9.375C18.4375 9.20239 18.2976 9.0625 18.125 9.0625H12.5C12.3274 9.0625 12.1875 9.20239 12.1875 9.375C12.1875 9.54761 12.3274 9.6875 12.5 9.6875Z" fill="white"/>
<path d="M13.75 11.5625H18.125C18.2976 11.5625 18.4375 11.4226 18.4375 11.25C18.4375 11.0774 18.2976 10.9375 18.125 10.9375H13.75C13.5774 10.9375 13.4375 11.0774 13.4375 11.25C13.4375 11.4226 13.5774 11.5625 13.75 11.5625Z" fill="white"/>
<path d="M13.75 13.4375H18.125C18.2976 13.4375 18.4375 13.2976 18.4375 13.125C18.4375 12.9524 18.2976 12.8125 18.125 12.8125H13.75C13.5774 12.8125 13.4375 12.9524 13.4375 13.125C13.4375 13.2976 13.5774 13.4375 13.75 13.4375Z" fill="white"/>
<path d="M12.5 17.1875H14.375C14.5476 17.1875 14.6875 17.0476 14.6875 16.875C14.6875 16.7024 14.5476 16.5625 14.375 16.5625H12.5C12.3274 16.5625 12.1875 16.7024 12.1875 16.875C12.1875 17.0476 12.3274 17.1875 12.5 17.1875Z" fill="white"/>
<path d="M12.5 15.3125H14.375C14.5476 15.3125 14.6875 15.1726 14.6875 15C14.6875 14.8274 14.5476 14.6875 14.375 14.6875H12.5C12.3274 14.6875 12.1875 14.8274 12.1875 15C12.1875 15.1726 12.3274 15.3125 12.5 15.3125Z" fill="white"/>
<path d="M12.5 19.0625H14.375C14.5476 19.0625 14.6875 18.9226 14.6875 18.75C14.6875 18.5774 14.5476 18.4375 14.375 18.4375H12.5C12.3274 18.4375 12.1875 18.5774 12.1875 18.75C12.1875 18.9226 12.3274 19.0625 12.5 19.0625Z" fill="white"/>
<defs>
<linearGradient id="paint0_linear_13_17" x1="15" y1="0" x2="15" y2="30" gradientUnits="userSpaceOnUse">
<stop stop-color="#07C4C4"/>
<stop offset="1" stop-color="#004D3A"/>
</linearGradient>
</defs>
</svg>
