<svg width="171" height="171" viewBox="0 0 171 171" fill="none" xmlns="http://www.w3.org/2000/svg">
<g filter="url(#filter0_f_6_48268)">
<path d="M85.3999 146.497C119.31 146.497 146.8 119.075 146.8 85.2485C146.8 51.4219 119.31 24 85.3999 24C51.4897 24 24 51.4219 24 85.2485C24 119.075 51.4897 146.497 85.3999 146.497Z" fill="#FF842B" fill-opacity="0.15"/>
</g>
<g filter="url(#filter1_f_6_48268)">
<path d="M86.9501 68.2635C90.0869 59.9538 94.1294 56.9306 105.98 54.8656L86.9501 68.2635ZM86.9501 68.2635H82.967H86.9501ZM86.9501 68.2635C91.7196 70.6722 94.5479 72.8396 95.7956 75.5715L86.9501 68.2635ZM105.98 54.8656C114.422 53.7434 118.523 54.6969 124.457 59.8483L105.98 54.8656ZM105.98 54.8656C104.979 46.1618 102.438 41.4662 97.129 33.1632C86.4171 20.384 80.9455 21.3108 71.9028 33.8276C67.4603 41.2454 66.6477 45.4992 66.5921 53.1649L105.98 54.8656ZM124.457 59.8483C125.798 66.3166 124.835 69.9762 119.921 76.568L124.457 59.8483ZM124.457 59.8483L95.7956 75.5715L124.457 59.8483ZM119.921 76.568C110.745 86.4827 105.427 89.3935 95.3588 85.6476L119.921 76.568ZM119.921 76.568C129.325 83.443 131.503 88.8133 135.411 98.3811C137.884 108.732 134.823 112.152 122.244 114.437C110.509 114.635 104.009 114.617 96.5824 107.904L119.921 76.568ZM95.3588 85.6476L94.2524 87.6406L95.3588 85.6476ZM95.3588 85.6476C96.7371 81.3057 96.9874 78.1811 95.7956 75.5715L95.3588 85.6476ZM94.2524 87.6406C90.1386 90.9565 86.9982 92.6106 83.9626 92.4499L94.2524 87.6406ZM94.2524 87.6406C100.596 95.8886 98.9572 100.834 96.5824 107.904L94.2524 87.6406ZM81.3073 125.509C87.1266 126.873 90.1394 122.545 95.3588 111.668C95.7646 110.336 96.1838 109.09 96.5824 107.904L81.3073 125.509ZM81.3073 125.509C75.6316 125.309 72.7194 122.644 68.5837 107.904L81.3073 125.509ZM81.3073 125.509L83.9626 92.4499L81.3073 125.509ZM68.5837 107.904C67.609 98.4015 67.3141 93.1652 74.5582 86.6441L68.5837 107.904ZM68.5837 107.904C61.0794 112.219 56.6717 113.356 48.5576 113.772C33.843 111.225 31.5234 106.743 38.5999 92.9555C43.1166 84.6611 45.9749 80.5168 52.6514 75.5715L68.5837 107.904ZM74.5582 86.6441L73.3412 83.7652L74.5582 86.6441ZM74.5582 86.6441C78.1326 90.4053 80.9977 92.2932 83.9626 92.4499L74.5582 86.6441ZM73.3412 83.7652C64.1416 86.1462 59.8907 82.9598 52.6514 75.5715L73.3412 83.7652ZM73.3412 83.7652C72.842 79.5194 73.1259 76.5545 74.5582 74.2118L73.3412 83.7652ZM52.6514 75.5715C47.0739 67.4211 44.2827 62.9081 46.5662 56.0836L52.6514 75.5715ZM46.5662 56.0836C51.2153 50.9389 55.521 50.559 65.1538 52.7618C65.6463 52.8959 66.1256 53.0301 66.5921 53.1649L46.5662 56.0836ZM46.5662 56.0836L74.5582 74.2118L46.5662 56.0836ZM82.967 68.2635C78.6975 70.0655 76.0254 71.8123 74.5582 74.2118L82.967 68.2635ZM82.967 68.2635C80.9562 59.3927 76.9262 56.1495 66.5921 53.1649L82.967 68.2635ZM84.6266 76.1251C79.6087 79.1674 79.2526 81.2224 83.9626 85.6476C90.3673 82.1358 90.5836 80.0523 84.6266 76.1251Z" stroke="#BC3C05" stroke-width="8"/>
</g>
<g filter="url(#filter2_f_6_48268)">
<g filter="url(#filter3_d_6_48268)">
<path d="M86.9501 68.2635C90.0868 59.9538 94.1294 56.9306 105.98 54.8656L86.9501 68.2635ZM86.9501 68.2635H82.967H86.9501ZM86.9501 68.2635C91.7196 70.6722 94.5479 72.8396 95.7956 75.5715L86.9501 68.2635ZM105.98 54.8656C114.422 53.7434 118.523 54.6969 124.457 59.8483L105.98 54.8656ZM105.98 54.8656C104.979 46.1618 102.438 41.4662 97.129 33.1632C86.4171 20.384 80.9455 21.3108 71.9028 33.8276C67.4603 41.2454 66.6477 45.4992 66.5921 53.1649L105.98 54.8656ZM124.457 59.8483C125.798 66.3166 124.835 69.9762 119.921 76.568L124.457 59.8483ZM124.457 59.8483L95.7956 75.5715L124.457 59.8483ZM119.921 76.568C110.745 86.4827 105.427 89.3935 95.3588 85.6476L119.921 76.568ZM119.921 76.568C129.325 83.443 131.503 88.8133 135.411 98.3811C137.884 108.732 134.823 112.152 122.244 114.437C110.509 114.635 104.009 114.617 96.5824 107.904L119.921 76.568ZM95.3588 85.6476L94.2524 87.6406L95.3588 85.6476ZM95.3588 85.6476C96.7371 81.3057 96.9874 78.181 95.7956 75.5715L95.3588 85.6476ZM94.2524 87.6406C90.1386 90.9565 86.9982 92.6106 83.9626 92.4499L94.2524 87.6406ZM94.2524 87.6406C100.596 95.8886 98.9572 100.834 96.5824 107.904L94.2524 87.6406ZM81.3073 125.509C87.1266 126.873 90.1394 122.545 95.3588 111.668C95.7646 110.336 96.1838 109.09 96.5824 107.904L81.3073 125.509ZM81.3073 125.509C75.6316 125.309 72.7194 122.644 68.5837 107.904L81.3073 125.509ZM81.3073 125.509L83.9626 92.4499L81.3073 125.509ZM68.5837 107.904C67.609 98.4015 67.3141 93.1652 74.5582 86.6441L68.5837 107.904ZM68.5837 107.904C61.0794 112.219 56.6717 113.356 48.5576 113.772C33.843 111.225 31.5234 106.743 38.5999 92.9555C43.1166 84.6611 45.9749 80.5168 52.6514 75.5715L68.5837 107.904ZM74.5582 86.6441L73.3413 83.7652L74.5582 86.6441ZM74.5582 86.6441C78.1326 90.4053 80.9977 92.2932 83.9626 92.4499L74.5582 86.6441ZM73.3413 83.7652C64.1416 86.1462 59.8907 82.9598 52.6514 75.5715L73.3413 83.7652ZM73.3413 83.7652C72.842 79.5194 73.1259 76.5545 74.5582 74.2118L73.3413 83.7652ZM52.6514 75.5715C47.0739 67.4212 44.2827 62.9081 46.5662 56.0836L52.6514 75.5715ZM46.5662 56.0836C51.2153 50.9389 55.521 50.559 65.1538 52.7618C65.6463 52.8959 66.1256 53.0301 66.5921 53.1649L46.5662 56.0836ZM46.5662 56.0836L74.5582 74.2118L46.5662 56.0836ZM82.967 68.2635C78.6975 70.0655 76.0254 71.8123 74.5582 74.2118L82.967 68.2635ZM82.967 68.2635C80.9562 59.3927 76.9262 56.1495 66.5921 53.1649L82.967 68.2635ZM84.6266 76.1251C79.6087 79.1674 79.2526 81.2224 83.9626 85.6476C90.3673 82.1358 90.5836 80.0523 84.6266 76.1251Z" stroke="#FF842B" stroke-width="3" shape-rendering="crispEdges"/>
</g>
</g>
<g filter="url(#filter4_f_6_48268)">
<path d="M86.9501 68.2635C90.0869 59.9538 94.1294 56.9306 105.98 54.8656L86.9501 68.2635ZM86.9501 68.2635H82.967H86.9501ZM86.9501 68.2635C91.7196 70.6722 94.5479 72.8396 95.7956 75.5715L86.9501 68.2635ZM105.98 54.8656C114.422 53.7434 118.523 54.6969 124.457 59.8483L105.98 54.8656ZM105.98 54.8656C104.979 46.1618 102.438 41.4662 97.129 33.1632C86.4171 20.384 80.9455 21.3108 71.9028 33.8276C67.4603 41.2454 66.6477 45.4992 66.5921 53.1649L105.98 54.8656ZM124.457 59.8483C125.798 66.3166 124.835 69.9762 119.921 76.568L124.457 59.8483ZM124.457 59.8483L95.7956 75.5715L124.457 59.8483ZM119.921 76.568C110.745 86.4827 105.427 89.3935 95.3588 85.6476L119.921 76.568ZM119.921 76.568C129.325 83.443 131.503 88.8133 135.411 98.3811C137.884 108.732 134.823 112.152 122.244 114.437C110.509 114.635 104.009 114.617 96.5824 107.904L119.921 76.568ZM95.3588 85.6476L94.2524 87.6406L95.3588 85.6476ZM95.3588 85.6476C96.7371 81.3057 96.9874 78.1811 95.7956 75.5715L95.3588 85.6476ZM94.2524 87.6406C90.1386 90.9565 86.9982 92.6106 83.9626 92.4499L94.2524 87.6406ZM94.2524 87.6406C100.596 95.8886 98.9572 100.834 96.5824 107.904L94.2524 87.6406ZM81.3073 125.509C87.1266 126.873 90.1394 122.545 95.3588 111.668C95.7646 110.336 96.1838 109.09 96.5824 107.904L81.3073 125.509ZM81.3073 125.509C75.6316 125.309 72.7194 122.644 68.5837 107.904L81.3073 125.509ZM81.3073 125.509L83.9626 92.4499L81.3073 125.509ZM68.5837 107.904C67.609 98.4015 67.3141 93.1652 74.5582 86.6441L68.5837 107.904ZM68.5837 107.904C61.0794 112.219 56.6717 113.356 48.5576 113.772C33.843 111.225 31.5234 106.743 38.5999 92.9555C43.1166 84.6611 45.9749 80.5168 52.6514 75.5715L68.5837 107.904ZM74.5582 86.6441L73.3412 83.7652L74.5582 86.6441ZM74.5582 86.6441C78.1326 90.4053 80.9977 92.2932 83.9626 92.4499L74.5582 86.6441ZM73.3412 83.7652C64.1416 86.1462 59.8907 82.9598 52.6514 75.5715L73.3412 83.7652ZM73.3412 83.7652C72.842 79.5194 73.1259 76.5545 74.5582 74.2118L73.3412 83.7652ZM52.6514 75.5715C47.0739 67.4211 44.2827 62.9081 46.5662 56.0836L52.6514 75.5715ZM46.5662 56.0836C51.2153 50.9389 55.521 50.559 65.1538 52.7618C65.6463 52.8959 66.1256 53.0301 66.5921 53.1649L46.5662 56.0836ZM46.5662 56.0836L74.5582 74.2118L46.5662 56.0836ZM82.967 68.2635C78.6975 70.0655 76.0254 71.8123 74.5582 74.2118L82.967 68.2635ZM82.967 68.2635C80.9562 59.3927 76.9262 56.1495 66.5921 53.1649L82.967 68.2635ZM84.6266 76.1251C79.6087 79.1674 79.2526 81.2224 83.9626 85.6476C90.3673 82.1358 90.5836 80.0523 84.6266 76.1251Z" stroke="white" stroke-width="0.7"/>
</g>
<defs>
<filter id="filter0_f_6_48268" x="0" y="0" width="170.801" height="170.497" filterUnits="userSpaceOnUse" color-interpolation-filters="sRGB">
<feFlood flood-opacity="0" result="BackgroundImageFix"/>
<feBlend mode="normal" in="SourceGraphic" in2="BackgroundImageFix" result="shape"/>
<feGaussianBlur stdDeviation="12" result="effect1_foregroundBlur_6_48268"/>
</filter>
<filter id="filter1_f_6_48268" x="21.75" y="11" width="127.449" height="127.795" filterUnits="userSpaceOnUse" color-interpolation-filters="sRGB">
<feFlood flood-opacity="0" result="BackgroundImageFix"/>
<feBlend mode="normal" in="SourceGraphic" in2="BackgroundImageFix" result="shape"/>
<feGaussianBlur stdDeviation="4.5" result="effect1_foregroundBlur_6_48268"/>
</filter>
<filter id="filter2_f_6_48268" x="30.25" y="19.5" width="110.449" height="110.753" filterUnits="userSpaceOnUse" color-interpolation-filters="sRGB">
<feFlood flood-opacity="0" result="BackgroundImageFix"/>
<feBlend mode="normal" in="SourceGraphic" in2="BackgroundImageFix" result="shape"/>
<feGaussianBlur stdDeviation="1.5" result="effect1_foregroundBlur_6_48268"/>
</filter>
<filter id="filter3_d_6_48268" x="29.25" y="22.5" width="112.449" height="112.753" filterUnits="userSpaceOnUse" color-interpolation-filters="sRGB">
<feFlood flood-opacity="0" result="BackgroundImageFix"/>
<feColorMatrix in="SourceAlpha" type="matrix" values="0 0 0 0 0 0 0 0 0 0 0 0 0 0 0 0 0 0 127 0" result="hardAlpha"/>
<feOffset dy="4"/>
<feGaussianBlur stdDeviation="2"/>
<feComposite in2="hardAlpha" operator="out"/>
<feColorMatrix type="matrix" values="0 0 0 0 0 0 0 0 0 0 0 0 0 0 0 0 0 0 0.25 0"/>
<feBlend mode="normal" in2="BackgroundImageFix" result="effect1_dropShadow_6_48268"/>
<feBlend mode="normal" in="SourceGraphic" in2="effect1_dropShadow_6_48268" result="shape"/>
</filter>
<filter id="filter4_f_6_48268" x="33.4004" y="22.6499" width="104.15" height="104.453" filterUnits="userSpaceOnUse" color-interpolation-filters="sRGB">
<feFlood flood-opacity="0" result="BackgroundImageFix"/>
<feBlend mode="normal" in="SourceGraphic" in2="BackgroundImageFix" result="shape"/>
<feGaussianBlur stdDeviation="0.5" result="effect1_foregroundBlur_6_48268"/>
</filter>
</defs>
</svg>
