<svg width="122" height="126" viewBox="0 0 122 126" fill="none" xmlns="http://www.w3.org/2000/svg">
<g filter="url(#filter0_f_6_48317)">
<path d="M56.8939 24.8775C58.0339 24.7367 59.2018 24.6408 60.3978 24.5922C62.5382 24.5052 64.6018 24.6064 66.5844 24.8775M56.8939 24.8775H66.5844M56.8939 24.8775C57.1547 18.9104 58.2827 16.1817 61.3832 12C65.1029 16.1718 66.0912 19.0679 66.5844 24.8775M56.8939 24.8775C56.563 24.9185 56.2345 24.9632 55.9084 25.0116M56.8939 24.8775L55.9084 25.0116M66.5844 24.8775C67.2694 24.9713 67.9445 25.0851 68.6101 25.2187M66.5844 24.8775L68.6101 25.2187M55.9084 25.0116C53.5194 19.2108 51.4356 16.6746 46.0536 13.752C44.2086 19.2626 44.1549 22.3523 46.0536 27.8631M55.9084 25.0116L46.0536 27.8631M55.9084 25.0116C52.3353 25.5417 49.0471 26.5189 46.0536 27.8631M68.6101 25.2187C70.6467 19.7937 72.5693 17.4502 77.1508 14.2994C78.9735 19.9308 79.1016 22.9937 77.1508 28.227M68.6101 25.2187L77.1508 28.227M68.6101 25.2187C71.6709 25.8326 74.5236 26.8599 77.1508 28.227M77.1508 28.227C77.7364 28.5319 78.3106 28.8534 78.8737 29.1911M77.1508 28.227L78.8737 29.1911M78.8737 29.1911C82.6833 24.8064 85.5033 23.1981 91.495 21.5263C91.5274 27.6447 90.4583 30.7669 86.9055 35.8704M78.8737 29.1911L86.9055 35.8704M78.8737 29.1911C81.8864 30.9982 84.5734 33.2661 86.9055 35.8704M86.9055 35.8704C87.1635 36.1584 87.4169 36.4503 87.6661 36.7464M86.9055 35.8704L87.6661 36.7464M87.6661 36.7464C92.4953 33.9879 95.5772 32.9748 102.226 32.8045C100.367 38.3862 98.3177 41.1558 93.3209 45.6156M87.6661 36.7464L93.3209 45.6156M87.6661 36.7464C89.918 39.4218 91.8125 42.4194 93.3209 45.6156M93.3209 45.6156C99.621 44.3334 103.154 44.3358 109.453 46.2726C105.494 51.5668 102.781 53.7226 96.5934 55.3609M93.3209 45.6156L96.5934 55.3609M93.3209 45.6156C94.7836 48.7151 95.8832 52.0013 96.5934 55.3609M96.5934 55.3609C96.6551 55.6524 96.7136 55.9443 96.7694 56.2369M96.5934 55.3609L96.7694 56.2369M96.7694 56.2369C102.4 56.7587 105.277 58.1266 110 62.1497C105.635 65.9799 102.967 67.1395 97.511 66.0916M96.7694 56.2369L97.511 66.0916M96.7694 56.2369C97.3905 59.4962 97.6456 62.8152 97.511 66.0916M97.511 66.0916C97.5005 66.3474 97.4875 66.603 97.4724 66.8581M97.511 66.0916L97.4724 66.8581M97.4724 66.8581C103.126 69.7996 105.755 71.9983 109.124 77.2603C103.63 79.1146 100.553 79.5234 95.0736 78.1363M97.4724 66.8581L95.0736 78.1363M97.4724 66.8581C97.2399 70.7461 96.4534 74.5628 95.0736 78.1363M95.0736 78.1363C94.9317 78.504 94.7834 78.8691 94.629 79.2313M95.0736 78.1363L94.629 79.2313M94.629 79.2313C100.767 83.5718 102.516 86.6981 105.401 92.3709C98.667 92.1776 94.9923 91.4785 88.7575 88.348M94.629 79.2313L88.7575 88.348M94.629 79.2313C93.2134 82.5495 91.2674 85.6362 88.7575 88.348M46.0536 27.8631C45.6091 28.0626 45.1711 28.2704 44.7397 28.4859M46.0536 27.8631L44.7397 28.4859M44.7397 28.4859C40.8904 23.6483 38.1538 21.7003 32.257 19.5553C31.5733 26.2784 32.7326 29.4906 36.6369 34.5564L44.7397 28.4859ZM44.7397 28.4859C41.1889 30.2595 38.0805 32.5638 35.4324 35.2533M44.7397 28.4859L35.4324 35.2533M35.4324 35.2533C30.4347 32.2682 27.1835 31.418 20.6503 31.2715C22.2347 36.6947 23.938 39.4223 29.4101 43.3528M35.4324 35.2533L29.4101 43.3528M35.4324 35.2533C33.0469 37.676 31.035 40.4112 29.4101 43.3528M29.4101 43.3528C29.0785 43.9528 28.7631 44.5614 28.464 45.1777M29.4101 43.3528L28.464 45.1777M28.464 45.1777C22.6628 42.274 19.4195 42.8962 13.6425 45.8346C15.7936 51.5596 18.2967 53.794 25.3359 54.2659M28.464 45.1777L25.3359 54.2659M28.464 45.1777C27.0605 48.0693 26.0139 51.1297 25.3359 54.2659M25.3359 54.2659C25.2102 54.8476 25.0972 55.4316 24.9969 56.0179M25.3359 54.2659L24.9969 56.0179M24.9969 56.0179C19.6727 55.8298 16.8536 57.1637 12 61.0547C16.5229 65.204 19.1355 67.157 24.5933 66.7486M24.9969 56.0179L24.5933 66.7486M24.9969 56.0179C24.3898 59.5651 24.2499 63.186 24.5933 66.7486M24.5933 66.7486C24.632 67.1509 24.6769 67.5525 24.728 67.9531M24.5933 66.7486L24.728 67.9531M24.728 67.9531C18.15 70.0213 16.2612 72.5003 13.2045 77.1508C18.7442 79.3092 21.8228 80.9475 27.6581 78.4694M24.728 67.9531L27.6581 78.4694M24.728 67.9531C25.1911 71.582 26.1619 75.1346 27.6581 78.4694M27.6581 78.4694C27.8057 78.7985 27.9586 79.1255 28.1165 79.4503M27.6581 78.4694L28.1165 79.4503M28.1165 79.4503C22.9666 84.0411 22.2244 87.216 20.6503 92.8089C26.4269 92.2006 30.246 93.2498 34.1184 88.0798M28.1165 79.4503L34.1184 88.0798M28.1165 79.4503C29.6365 82.576 31.632 85.4928 34.1184 88.0798M34.1184 88.0798C34.4101 88.3833 34.7088 88.6822 35.0141 88.9765M34.1184 88.0798L35.0141 88.9765M35.0141 88.9765C32.0213 93.6153 31.7684 97.0463 32.1475 103.649C38.0752 101.731 41.6705 100.921 43.3775 94.8894M35.0141 88.9765L43.3775 94.8894M35.0141 88.9765C37.388 91.2646 40.1719 93.2662 43.3775 94.8894M43.3775 94.8894C43.9981 95.2036 44.6348 95.5039 45.2872 95.789M43.3775 94.8894L45.2872 95.789M45.2872 95.789C42.8795 102.345 44.4265 105.598 46.2726 111.533C51.1941 107.201 54.5112 105.029 55.0324 98.6705M45.2872 95.789L55.0324 98.6705M45.2872 95.789C48.2134 97.0686 51.4593 98.0493 55.0324 98.6705M55.0324 98.6705C55.4656 98.7459 55.9036 98.816 56.3464 98.8808M55.0324 98.6705L56.3464 98.8808M56.3464 98.8808C58.0285 99.1265 59.7802 99.2945 61.6022 99.3788C63.5953 99.31 65.4984 99.1414 67.3132 98.8808M56.3464 98.8808H67.3132M56.3464 98.8808C56.7176 104.856 58.2503 108.009 62.5877 113.394C65.9118 107.821 67.3316 104.668 67.3132 98.8808M67.3132 98.8808C67.5278 98.8499 67.7411 98.8177 67.9531 98.7844M67.3132 98.8808L67.9531 98.7844M67.9531 98.7844C69.8914 104.612 72.9225 107.146 78.6838 111.533C79.901 105.326 80.5424 101.848 78.2844 95.789M67.9531 98.7844L78.2844 95.789M67.9531 98.7844C71.7953 98.1798 75.2335 97.1564 78.2844 95.789M78.2844 95.789C78.6043 95.6458 78.9199 95.4986 79.2313 95.3477M78.2844 95.789L79.2313 95.3477M79.2313 95.3477C83.775 100.806 87.5261 102.09 94.3419 104.197C93.0647 96.725 92.0957 92.8672 87.8323 89.305M79.2313 95.3477L87.8323 89.305M79.2313 95.3477C82.5797 93.7256 85.4385 91.6759 87.8323 89.305M87.8323 89.305C88.149 88.9916 88.4573 88.6726 88.7575 88.348M87.8323 89.305L88.7575 88.348M59.4123 30.6145C21.9642 35.8704 19.8838 87.4436 60.3978 92.8089L59.4123 30.6145Z" stroke="#F9C81C"/>
</g>
<g filter="url(#filter1_f_6_48317)">
<path d="M56.8939 24.8775C58.0339 24.7367 59.2018 24.6408 60.3978 24.5922C62.5382 24.5052 64.6018 24.6064 66.5844 24.8775M56.8939 24.8775H66.5844M56.8939 24.8775C57.1547 18.9104 58.2827 16.1817 61.3832 12C65.1029 16.1718 66.0912 19.0679 66.5844 24.8775M56.8939 24.8775C56.563 24.9185 56.2345 24.9632 55.9084 25.0116M56.8939 24.8775L55.9084 25.0116M66.5844 24.8775C67.2694 24.9713 67.9445 25.0851 68.6101 25.2187M66.5844 24.8775L68.6101 25.2187M55.9084 25.0116C53.5194 19.2108 51.4356 16.6746 46.0536 13.752C44.2086 19.2626 44.1549 22.3523 46.0536 27.8631M55.9084 25.0116L46.0536 27.8631M55.9084 25.0116C52.3353 25.5417 49.0471 26.5189 46.0536 27.8631M68.6101 25.2187C70.6467 19.7937 72.5693 17.4502 77.1508 14.2994C78.9735 19.9308 79.1016 22.9937 77.1508 28.227M68.6101 25.2187L77.1508 28.227M68.6101 25.2187C71.6709 25.8326 74.5236 26.8599 77.1508 28.227M77.1508 28.227C77.7364 28.5319 78.3106 28.8534 78.8737 29.1911M77.1508 28.227L78.8737 29.1911M78.8737 29.1911C82.6833 24.8064 85.5033 23.1981 91.495 21.5263C91.5274 27.6447 90.4583 30.7669 86.9055 35.8704M78.8737 29.1911L86.9055 35.8704M78.8737 29.1911C81.8864 30.9982 84.5734 33.2661 86.9055 35.8704M86.9055 35.8704C87.1635 36.1584 87.4169 36.4503 87.6661 36.7464M86.9055 35.8704L87.6661 36.7464M87.6661 36.7464C92.4953 33.9879 95.5772 32.9748 102.226 32.8045C100.367 38.3862 98.3177 41.1558 93.3209 45.6156M87.6661 36.7464L93.3209 45.6156M87.6661 36.7464C89.918 39.4218 91.8125 42.4194 93.3209 45.6156M93.3209 45.6156C99.621 44.3334 103.154 44.3358 109.453 46.2726C105.494 51.5668 102.781 53.7226 96.5934 55.3609M93.3209 45.6156L96.5934 55.3609M93.3209 45.6156C94.7836 48.7151 95.8832 52.0013 96.5934 55.3609M96.5934 55.3609C96.6551 55.6524 96.7136 55.9443 96.7694 56.2369M96.5934 55.3609L96.7694 56.2369M96.7694 56.2369C102.4 56.7587 105.277 58.1266 110 62.1497C105.635 65.9799 102.967 67.1395 97.511 66.0916M96.7694 56.2369L97.511 66.0916M96.7694 56.2369C97.3905 59.4962 97.6456 62.8152 97.511 66.0916M97.511 66.0916C97.5005 66.3474 97.4875 66.603 97.4724 66.8581M97.511 66.0916L97.4724 66.8581M97.4724 66.8581C103.126 69.7996 105.755 71.9983 109.124 77.2603C103.63 79.1146 100.553 79.5234 95.0736 78.1363M97.4724 66.8581L95.0736 78.1363M97.4724 66.8581C97.2399 70.7461 96.4534 74.5628 95.0736 78.1363M95.0736 78.1363C94.9317 78.504 94.7834 78.8691 94.629 79.2313M95.0736 78.1363L94.629 79.2313M94.629 79.2313C100.767 83.5718 102.516 86.6981 105.401 92.3709C98.667 92.1776 94.9923 91.4785 88.7575 88.348M94.629 79.2313L88.7575 88.348M94.629 79.2313C93.2134 82.5495 91.2674 85.6362 88.7575 88.348M46.0536 27.8631C45.6091 28.0626 45.1711 28.2704 44.7397 28.4859M46.0536 27.8631L44.7397 28.4859M44.7397 28.4859C40.8904 23.6483 38.1538 21.7003 32.257 19.5553C31.5733 26.2784 32.7326 29.4906 36.6369 34.5564L44.7397 28.4859ZM44.7397 28.4859C41.1889 30.2595 38.0805 32.5638 35.4324 35.2533M44.7397 28.4859L35.4324 35.2533M35.4324 35.2533C30.4347 32.2682 27.1835 31.418 20.6503 31.2715C22.2347 36.6947 23.938 39.4223 29.4101 43.3528M35.4324 35.2533L29.4101 43.3528M35.4324 35.2533C33.0469 37.676 31.035 40.4112 29.4101 43.3528M29.4101 43.3528C29.0785 43.9528 28.7631 44.5614 28.464 45.1777M29.4101 43.3528L28.464 45.1777M28.464 45.1777C22.6628 42.274 19.4195 42.8962 13.6425 45.8346C15.7936 51.5596 18.2967 53.794 25.3359 54.2659M28.464 45.1777L25.3359 54.2659M28.464 45.1777C27.0605 48.0693 26.0139 51.1297 25.3359 54.2659M25.3359 54.2659C25.2102 54.8476 25.0972 55.4316 24.9969 56.0179M25.3359 54.2659L24.9969 56.0179M24.9969 56.0179C19.6727 55.8298 16.8536 57.1637 12 61.0547C16.5229 65.204 19.1355 67.157 24.5933 66.7486M24.9969 56.0179L24.5933 66.7486M24.9969 56.0179C24.3898 59.5651 24.2499 63.186 24.5933 66.7486M24.5933 66.7486C24.632 67.1509 24.6769 67.5525 24.728 67.9531M24.5933 66.7486L24.728 67.9531M24.728 67.9531C18.15 70.0213 16.2612 72.5003 13.2045 77.1508C18.7442 79.3092 21.8228 80.9475 27.6581 78.4694M24.728 67.9531L27.6581 78.4694M24.728 67.9531C25.1911 71.582 26.1619 75.1346 27.6581 78.4694M27.6581 78.4694C27.8057 78.7985 27.9586 79.1255 28.1165 79.4503M27.6581 78.4694L28.1165 79.4503M28.1165 79.4503C22.9666 84.0411 22.2244 87.216 20.6503 92.8089C26.4269 92.2006 30.246 93.2498 34.1184 88.0798M28.1165 79.4503L34.1184 88.0798M28.1165 79.4503C29.6365 82.576 31.632 85.4928 34.1184 88.0798M34.1184 88.0798C34.4101 88.3833 34.7088 88.6822 35.0141 88.9765M34.1184 88.0798L35.0141 88.9765M35.0141 88.9765C32.0213 93.6153 31.7684 97.0463 32.1475 103.649C38.0752 101.731 41.6705 100.921 43.3775 94.8894M35.0141 88.9765L43.3775 94.8894M35.0141 88.9765C37.388 91.2646 40.1719 93.2662 43.3775 94.8894M43.3775 94.8894C43.9981 95.2036 44.6348 95.5039 45.2872 95.789M43.3775 94.8894L45.2872 95.789M45.2872 95.789C42.8795 102.345 44.4265 105.598 46.2726 111.533C51.1941 107.201 54.5112 105.029 55.0324 98.6705M45.2872 95.789L55.0324 98.6705M45.2872 95.789C48.2134 97.0686 51.4593 98.0493 55.0324 98.6705M55.0324 98.6705C55.4656 98.7459 55.9036 98.816 56.3464 98.8808M55.0324 98.6705L56.3464 98.8808M56.3464 98.8808C58.0285 99.1265 59.7802 99.2945 61.6022 99.3788C63.5953 99.31 65.4984 99.1414 67.3132 98.8808M56.3464 98.8808H67.3132M56.3464 98.8808C56.7176 104.856 58.2503 108.009 62.5877 113.394C65.9118 107.821 67.3316 104.668 67.3132 98.8808M67.3132 98.8808C67.5278 98.8499 67.7411 98.8177 67.9531 98.7844M67.3132 98.8808L67.9531 98.7844M67.9531 98.7844C69.8914 104.612 72.9225 107.146 78.6838 111.533C79.901 105.326 80.5424 101.848 78.2844 95.789M67.9531 98.7844L78.2844 95.789M67.9531 98.7844C71.7953 98.1798 75.2335 97.1564 78.2844 95.789M78.2844 95.789C78.6043 95.6458 78.9199 95.4986 79.2313 95.3477M78.2844 95.789L79.2313 95.3477M79.2313 95.3477C83.775 100.806 87.5261 102.09 94.3419 104.197C93.0647 96.725 92.0957 92.8672 87.8323 89.305M79.2313 95.3477L87.8323 89.305M79.2313 95.3477C82.5797 93.7256 85.4385 91.6759 87.8323 89.305M87.8323 89.305C88.149 88.9916 88.4573 88.6726 88.7575 88.348M87.8323 89.305L88.7575 88.348M59.4123 30.6145C21.9642 35.8704 19.8838 87.4436 60.3978 92.8089L59.4123 30.6145Z" stroke="#FFE382" stroke-width="4"/>
<path d="M56.8939 24.8775C58.0339 24.7367 59.2018 24.6408 60.3978 24.5922C62.5382 24.5052 64.6018 24.6064 66.5844 24.8775M56.8939 24.8775H66.5844M56.8939 24.8775C57.1547 18.9104 58.2827 16.1817 61.3832 12C65.1029 16.1718 66.0912 19.0679 66.5844 24.8775M56.8939 24.8775C56.563 24.9185 56.2345 24.9632 55.9084 25.0116M56.8939 24.8775L55.9084 25.0116M66.5844 24.8775C67.2694 24.9713 67.9445 25.0851 68.6101 25.2187M66.5844 24.8775L68.6101 25.2187M55.9084 25.0116C53.5194 19.2108 51.4356 16.6746 46.0536 13.752C44.2086 19.2626 44.1549 22.3523 46.0536 27.8631M55.9084 25.0116L46.0536 27.8631M55.9084 25.0116C52.3353 25.5417 49.0471 26.5189 46.0536 27.8631M68.6101 25.2187C70.6467 19.7937 72.5693 17.4502 77.1508 14.2994C78.9735 19.9308 79.1016 22.9937 77.1508 28.227M68.6101 25.2187L77.1508 28.227M68.6101 25.2187C71.6709 25.8326 74.5236 26.8599 77.1508 28.227M77.1508 28.227C77.7364 28.5319 78.3106 28.8534 78.8737 29.1911M77.1508 28.227L78.8737 29.1911M78.8737 29.1911C82.6833 24.8064 85.5033 23.1981 91.495 21.5263C91.5274 27.6447 90.4583 30.7669 86.9055 35.8704M78.8737 29.1911L86.9055 35.8704M78.8737 29.1911C81.8864 30.9982 84.5734 33.2661 86.9055 35.8704M86.9055 35.8704C87.1635 36.1584 87.4169 36.4503 87.6661 36.7464M86.9055 35.8704L87.6661 36.7464M87.6661 36.7464C92.4953 33.9879 95.5773 32.9748 102.226 32.8045C100.367 38.3862 98.3177 41.1558 93.3209 45.6156M87.6661 36.7464L93.3209 45.6156M87.6661 36.7464C89.918 39.4218 91.8125 42.4194 93.3209 45.6156M93.3209 45.6156C99.621 44.3334 103.154 44.3358 109.453 46.2726C105.494 51.5668 102.781 53.7226 96.5934 55.3609M93.3209 45.6156L96.5934 55.3609M93.3209 45.6156C94.7836 48.7151 95.8832 52.0013 96.5934 55.3609M96.5934 55.3609C96.6551 55.6524 96.7136 55.9443 96.7695 56.2369M96.5934 55.3609L96.7695 56.2369M96.7695 56.2369C102.4 56.7587 105.277 58.1266 110 62.1497C105.635 65.9799 102.967 67.1395 97.511 66.0916M96.7695 56.2369L97.511 66.0916M96.7695 56.2369C97.3905 59.4962 97.6456 62.8152 97.511 66.0916M97.511 66.0916C97.5005 66.3474 97.4875 66.603 97.4724 66.8581M97.511 66.0916L97.4724 66.8581M97.4724 66.8581C103.126 69.7996 105.755 71.9983 109.124 77.2603C103.63 79.1146 100.553 79.5234 95.0736 78.1363M97.4724 66.8581L95.0736 78.1363M97.4724 66.8581C97.2399 70.7461 96.4534 74.5628 95.0736 78.1363M95.0736 78.1363C94.9316 78.504 94.7834 78.8691 94.629 79.2313M95.0736 78.1363L94.629 79.2313M94.629 79.2313C100.767 83.5718 102.516 86.6981 105.401 92.3709C98.667 92.1776 94.9923 91.4785 88.7575 88.348M94.629 79.2313L88.7575 88.348M94.629 79.2313C93.2134 82.5495 91.2674 85.6362 88.7575 88.348M46.0536 27.8631C45.6091 28.0626 45.1711 28.2704 44.7397 28.4859M46.0536 27.8631L44.7397 28.4859M44.7397 28.4859C40.8904 23.6483 38.1538 21.7003 32.257 19.5553C31.5733 26.2784 32.7326 29.4906 36.6369 34.5564L44.7397 28.4859ZM44.7397 28.4859C41.1889 30.2595 38.0805 32.5638 35.4324 35.2533M44.7397 28.4859L35.4324 35.2533M35.4324 35.2533C30.4347 32.2682 27.1835 31.418 20.6503 31.2715C22.2347 36.6947 23.938 39.4223 29.4101 43.3528M35.4324 35.2533L29.4101 43.3528M35.4324 35.2533C33.0469 37.676 31.035 40.4112 29.4101 43.3528M29.4101 43.3528C29.0785 43.9528 28.7631 44.5614 28.464 45.1777M29.4101 43.3528L28.464 45.1777M28.464 45.1777C22.6628 42.274 19.4195 42.8962 13.6425 45.8346C15.7936 51.5596 18.2967 53.794 25.3359 54.2659M28.464 45.1777L25.3359 54.2659M28.464 45.1777C27.0605 48.0693 26.0139 51.1297 25.3359 54.2659M25.3359 54.2659C25.2102 54.8476 25.0972 55.4316 24.9969 56.0179M25.3359 54.2659L24.9969 56.0179M24.9969 56.0179C19.6727 55.8298 16.8536 57.1637 12 61.0547C16.5229 65.204 19.1355 67.157 24.5933 66.7486M24.9969 56.0179L24.5933 66.7486M24.9969 56.0179C24.3898 59.5651 24.2499 63.186 24.5933 66.7486M24.5933 66.7486C24.632 67.1509 24.6769 67.5525 24.728 67.9531M24.5933 66.7486L24.728 67.9531M24.728 67.9531C18.15 70.0213 16.2612 72.5003 13.2045 77.1508C18.7442 79.3092 21.8228 80.9475 27.6581 78.4694M24.728 67.9531L27.6581 78.4694M24.728 67.9531C25.1911 71.582 26.1619 75.1346 27.6581 78.4694M27.6581 78.4694C27.8057 78.7985 27.9586 79.1255 28.1165 79.4503M27.6581 78.4694L28.1165 79.4503M28.1165 79.4503C22.9666 84.0411 22.2244 87.216 20.6503 92.8089C26.4269 92.2006 30.246 93.2498 34.1184 88.0797M28.1165 79.4503L34.1184 88.0797M28.1165 79.4503C29.6365 82.576 31.632 85.4928 34.1184 88.0797M34.1184 88.0797C34.4101 88.3833 34.7088 88.6822 35.0141 88.9765M34.1184 88.0797L35.0141 88.9765M35.0141 88.9765C32.0213 93.6153 31.7684 97.0463 32.1475 103.649C38.0752 101.731 41.6705 100.921 43.3775 94.8894M35.0141 88.9765L43.3775 94.8894M35.0141 88.9765C37.388 91.2646 40.1719 93.2662 43.3775 94.8894M43.3775 94.8894C43.9982 95.2036 44.6348 95.5039 45.2872 95.789M43.3775 94.8894L45.2872 95.789M45.2872 95.789C42.8795 102.345 44.4265 105.598 46.2726 111.533C51.1941 107.201 54.5112 105.029 55.0324 98.6705M45.2872 95.789L55.0324 98.6705M45.2872 95.789C48.2134 97.0686 51.4593 98.0492 55.0324 98.6705M55.0324 98.6705C55.4656 98.7459 55.9036 98.816 56.3464 98.8808M55.0324 98.6705L56.3464 98.8808M56.3464 98.8808C58.0285 99.1265 59.7802 99.2944 61.6022 99.3788C63.5953 99.31 65.4984 99.1414 67.3132 98.8808M56.3464 98.8808H67.3132M56.3464 98.8808C56.7176 104.856 58.2503 108.009 62.5877 113.394C65.9118 107.821 67.3316 104.668 67.3132 98.8808M67.3132 98.8808C67.5278 98.8499 67.7411 98.8177 67.9531 98.7844M67.3132 98.8808L67.9531 98.7844M67.9531 98.7844C69.8914 104.612 72.9225 107.146 78.6838 111.533C79.901 105.326 80.5424 101.848 78.2844 95.789M67.9531 98.7844L78.2844 95.789M67.9531 98.7844C71.7953 98.1798 75.2335 97.1564 78.2844 95.789M78.2844 95.789C78.6043 95.6458 78.9199 95.4986 79.2313 95.3477M78.2844 95.789L79.2313 95.3477M79.2313 95.3477C83.775 100.806 87.5261 102.09 94.3419 104.197C93.0647 96.725 92.0957 92.8672 87.8323 89.305M79.2313 95.3477L87.8323 89.305M79.2313 95.3477C82.5797 93.7256 85.4385 91.6759 87.8323 89.305M87.8323 89.305C88.149 88.9916 88.4573 88.6726 88.7575 88.348M87.8323 89.305L88.7575 88.348M59.4123 30.6145C21.9642 35.8704 19.8838 87.4436 60.3978 92.8089L59.4123 30.6145Z" stroke="#FFE382" stroke-width="4"/>
<path d="M56.8939 24.8775C58.0339 24.7367 59.2018 24.6408 60.3978 24.5922C62.5382 24.5052 64.6018 24.6064 66.5844 24.8775M56.8939 24.8775H66.5844M56.8939 24.8775C57.1547 18.9104 58.2827 16.1817 61.3832 12C65.1029 16.1718 66.0912 19.0679 66.5844 24.8775M56.8939 24.8775C56.563 24.9185 56.2345 24.9632 55.9084 25.0116M56.8939 24.8775L55.9084 25.0116M66.5844 24.8775C67.2694 24.9713 67.9445 25.0851 68.6101 25.2187M66.5844 24.8775L68.6101 25.2187M55.9084 25.0116C53.5194 19.2108 51.4356 16.6746 46.0536 13.752C44.2086 19.2626 44.1549 22.3523 46.0536 27.8631M55.9084 25.0116L46.0536 27.8631M55.9084 25.0116C52.3353 25.5417 49.0471 26.5189 46.0536 27.8631M68.6101 25.2187C70.6467 19.7937 72.5693 17.4502 77.1508 14.2994C78.9735 19.9308 79.1016 22.9937 77.1508 28.227M68.6101 25.2187L77.1508 28.227M68.6101 25.2187C71.6709 25.8326 74.5236 26.8599 77.1508 28.227M77.1508 28.227C77.7364 28.5319 78.3106 28.8534 78.8737 29.1911M77.1508 28.227L78.8737 29.1911M78.8737 29.1911C82.6833 24.8064 85.5033 23.1981 91.495 21.5263C91.5274 27.6447 90.4583 30.7669 86.9055 35.8704M78.8737 29.1911L86.9055 35.8704M78.8737 29.1911C81.8864 30.9982 84.5734 33.2661 86.9055 35.8704M86.9055 35.8704C87.1635 36.1584 87.4169 36.4503 87.6661 36.7464M86.9055 35.8704L87.6661 36.7464M87.6661 36.7464C92.4953 33.9879 95.5773 32.9748 102.226 32.8045C100.367 38.3862 98.3177 41.1558 93.3209 45.6156M87.6661 36.7464L93.3209 45.6156M87.6661 36.7464C89.918 39.4218 91.8125 42.4194 93.3209 45.6156M93.3209 45.6156C99.621 44.3334 103.154 44.3358 109.453 46.2726C105.494 51.5668 102.781 53.7226 96.5934 55.3609M93.3209 45.6156L96.5934 55.3609M93.3209 45.6156C94.7836 48.7151 95.8832 52.0013 96.5934 55.3609M96.5934 55.3609C96.6551 55.6524 96.7136 55.9443 96.7695 56.2369M96.5934 55.3609L96.7695 56.2369M96.7695 56.2369C102.4 56.7587 105.277 58.1266 110 62.1497C105.635 65.9799 102.967 67.1395 97.511 66.0916M96.7695 56.2369L97.511 66.0916M96.7695 56.2369C97.3905 59.4962 97.6456 62.8152 97.511 66.0916M97.511 66.0916C97.5005 66.3474 97.4875 66.603 97.4724 66.8581M97.511 66.0916L97.4724 66.8581M97.4724 66.8581C103.126 69.7996 105.755 71.9983 109.124 77.2603C103.63 79.1146 100.553 79.5234 95.0736 78.1363M97.4724 66.8581L95.0736 78.1363M97.4724 66.8581C97.2399 70.7461 96.4534 74.5628 95.0736 78.1363M95.0736 78.1363C94.9316 78.504 94.7834 78.8691 94.629 79.2313M95.0736 78.1363L94.629 79.2313M94.629 79.2313C100.767 83.5718 102.516 86.6981 105.401 92.3709C98.667 92.1776 94.9923 91.4785 88.7575 88.348M94.629 79.2313L88.7575 88.348M94.629 79.2313C93.2134 82.5495 91.2674 85.6362 88.7575 88.348M46.0536 27.8631C45.6091 28.0626 45.1711 28.2704 44.7397 28.4859M46.0536 27.8631L44.7397 28.4859M44.7397 28.4859C40.8904 23.6483 38.1538 21.7003 32.257 19.5553C31.5733 26.2784 32.7326 29.4906 36.6369 34.5564L44.7397 28.4859ZM44.7397 28.4859C41.1889 30.2595 38.0805 32.5638 35.4324 35.2533M44.7397 28.4859L35.4324 35.2533M35.4324 35.2533C30.4347 32.2682 27.1835 31.418 20.6503 31.2715C22.2347 36.6947 23.938 39.4223 29.4101 43.3528M35.4324 35.2533L29.4101 43.3528M35.4324 35.2533C33.0469 37.676 31.035 40.4112 29.4101 43.3528M29.4101 43.3528C29.0785 43.9528 28.7631 44.5614 28.464 45.1777M29.4101 43.3528L28.464 45.1777M28.464 45.1777C22.6628 42.274 19.4195 42.8962 13.6425 45.8346C15.7936 51.5596 18.2967 53.794 25.3359 54.2659M28.464 45.1777L25.3359 54.2659M28.464 45.1777C27.0605 48.0693 26.0139 51.1297 25.3359 54.2659M25.3359 54.2659C25.2102 54.8476 25.0972 55.4316 24.9969 56.0179M25.3359 54.2659L24.9969 56.0179M24.9969 56.0179C19.6727 55.8298 16.8536 57.1637 12 61.0547C16.5229 65.204 19.1355 67.157 24.5933 66.7486M24.9969 56.0179L24.5933 66.7486M24.9969 56.0179C24.3898 59.5651 24.2499 63.186 24.5933 66.7486M24.5933 66.7486C24.632 67.1509 24.6769 67.5525 24.728 67.9531M24.5933 66.7486L24.728 67.9531M24.728 67.9531C18.15 70.0213 16.2612 72.5003 13.2045 77.1508C18.7442 79.3092 21.8228 80.9475 27.6581 78.4694M24.728 67.9531L27.6581 78.4694M24.728 67.9531C25.1911 71.582 26.1619 75.1346 27.6581 78.4694M27.6581 78.4694C27.8057 78.7985 27.9586 79.1255 28.1165 79.4503M27.6581 78.4694L28.1165 79.4503M28.1165 79.4503C22.9666 84.0411 22.2244 87.216 20.6503 92.8089C26.4269 92.2006 30.246 93.2498 34.1184 88.0797M28.1165 79.4503L34.1184 88.0797M28.1165 79.4503C29.6365 82.576 31.632 85.4928 34.1184 88.0797M34.1184 88.0797C34.4101 88.3833 34.7088 88.6822 35.0141 88.9765M34.1184 88.0797L35.0141 88.9765M35.0141 88.9765C32.0213 93.6153 31.7684 97.0463 32.1475 103.649C38.0752 101.731 41.6705 100.921 43.3775 94.8894M35.0141 88.9765L43.3775 94.8894M35.0141 88.9765C37.388 91.2646 40.1719 93.2662 43.3775 94.8894M43.3775 94.8894C43.9982 95.2036 44.6348 95.5039 45.2872 95.789M43.3775 94.8894L45.2872 95.789M45.2872 95.789C42.8795 102.345 44.4265 105.598 46.2726 111.533C51.1941 107.201 54.5112 105.029 55.0324 98.6705M45.2872 95.789L55.0324 98.6705M45.2872 95.789C48.2134 97.0686 51.4593 98.0492 55.0324 98.6705M55.0324 98.6705C55.4656 98.7459 55.9036 98.816 56.3464 98.8808M55.0324 98.6705L56.3464 98.8808M56.3464 98.8808C58.0285 99.1265 59.7802 99.2944 61.6022 99.3788C63.5953 99.31 65.4984 99.1414 67.3132 98.8808M56.3464 98.8808H67.3132M56.3464 98.8808C56.7176 104.856 58.2503 108.009 62.5877 113.394C65.9118 107.821 67.3316 104.668 67.3132 98.8808M67.3132 98.8808C67.5278 98.8499 67.7411 98.8177 67.9531 98.7844M67.3132 98.8808L67.9531 98.7844M67.9531 98.7844C69.8914 104.612 72.9225 107.146 78.6838 111.533C79.901 105.326 80.5424 101.848 78.2844 95.789M67.9531 98.7844L78.2844 95.789M67.9531 98.7844C71.7953 98.1798 75.2335 97.1564 78.2844 95.789M78.2844 95.789C78.6043 95.6458 78.9199 95.4986 79.2313 95.3477M78.2844 95.789L79.2313 95.3477M79.2313 95.3477C83.775 100.806 87.5261 102.09 94.3419 104.197C93.0647 96.725 92.0957 92.8672 87.8323 89.305M79.2313 95.3477L87.8323 89.305M79.2313 95.3477C82.5797 93.7256 85.4385 91.6759 87.8323 89.305M87.8323 89.305C88.149 88.9916 88.4573 88.6726 88.7575 88.348M87.8323 89.305L88.7575 88.348M59.4123 30.6145C21.9642 35.8704 19.8838 87.4436 60.3978 92.8089L59.4123 30.6145Z" stroke="#FFE382" stroke-width="4"/>
</g>
<g filter="url(#filter2_f_6_48317)">
<path d="M56.8939 24.8775C58.0339 24.7367 59.2018 24.6408 60.3978 24.5922C62.5382 24.5052 64.6018 24.6064 66.5844 24.8775M56.8939 24.8775H66.5844M56.8939 24.8775C57.1547 18.9104 58.2827 16.1817 61.3832 12C65.1029 16.1718 66.0912 19.0679 66.5844 24.8775M56.8939 24.8775C56.563 24.9185 56.2345 24.9632 55.9084 25.0116M56.8939 24.8775L55.9084 25.0116M66.5844 24.8775C67.2694 24.9713 67.9445 25.0851 68.6101 25.2187M66.5844 24.8775L68.6101 25.2187M55.9084 25.0116C53.5194 19.2108 51.4356 16.6746 46.0536 13.752C44.2086 19.2626 44.1549 22.3523 46.0536 27.8631M55.9084 25.0116L46.0536 27.8631M55.9084 25.0116C52.3353 25.5417 49.0471 26.5189 46.0536 27.8631M68.6101 25.2187C70.6467 19.7937 72.5693 17.4502 77.1508 14.2994C78.9735 19.9308 79.1016 22.9937 77.1508 28.227M68.6101 25.2187L77.1508 28.227M68.6101 25.2187C71.6709 25.8326 74.5236 26.8599 77.1508 28.227M77.1508 28.227C77.7364 28.5319 78.3106 28.8534 78.8737 29.1911M77.1508 28.227L78.8737 29.1911M78.8737 29.1911C82.6833 24.8064 85.5033 23.1981 91.495 21.5263C91.5274 27.6447 90.4583 30.7669 86.9055 35.8704M78.8737 29.1911L86.9055 35.8704M78.8737 29.1911C81.8864 30.9982 84.5734 33.2661 86.9055 35.8704M86.9055 35.8704C87.1635 36.1584 87.4169 36.4503 87.6661 36.7464M86.9055 35.8704L87.6661 36.7464M87.6661 36.7464C92.4953 33.9879 95.5772 32.9748 102.226 32.8045C100.367 38.3862 98.3177 41.1558 93.3209 45.6156M87.6661 36.7464L93.3209 45.6156M87.6661 36.7464C89.918 39.4218 91.8125 42.4194 93.3209 45.6156M93.3209 45.6156C99.621 44.3334 103.154 44.3358 109.453 46.2726C105.494 51.5668 102.781 53.7226 96.5934 55.3609M93.3209 45.6156L96.5934 55.3609M93.3209 45.6156C94.7836 48.7151 95.8832 52.0013 96.5934 55.3609M96.5934 55.3609C96.6551 55.6524 96.7136 55.9443 96.7694 56.2369M96.5934 55.3609L96.7694 56.2369M96.7694 56.2369C102.4 56.7587 105.277 58.1266 110 62.1497C105.635 65.9799 102.967 67.1395 97.511 66.0916M96.7694 56.2369L97.511 66.0916M96.7694 56.2369C97.3905 59.4962 97.6456 62.8152 97.511 66.0916M97.511 66.0916C97.5005 66.3474 97.4875 66.603 97.4724 66.8581M97.511 66.0916L97.4724 66.8581M97.4724 66.8581C103.126 69.7996 105.755 71.9983 109.124 77.2603C103.63 79.1146 100.553 79.5234 95.0736 78.1363M97.4724 66.8581L95.0736 78.1363M97.4724 66.8581C97.2399 70.7461 96.4534 74.5628 95.0736 78.1363M95.0736 78.1363C94.9317 78.504 94.7834 78.8691 94.629 79.2313M95.0736 78.1363L94.629 79.2313M94.629 79.2313C100.767 83.5718 102.516 86.6981 105.401 92.3709C98.667 92.1776 94.9923 91.4785 88.7575 88.348M94.629 79.2313L88.7575 88.348M94.629 79.2313C93.2134 82.5495 91.2674 85.6362 88.7575 88.348M46.0536 27.8631C45.6091 28.0626 45.1711 28.2704 44.7397 28.4859M46.0536 27.8631L44.7397 28.4859M44.7397 28.4859C40.8904 23.6483 38.1538 21.7003 32.257 19.5553C31.5733 26.2784 32.7326 29.4906 36.6369 34.5564L44.7397 28.4859ZM44.7397 28.4859C41.1889 30.2595 38.0805 32.5638 35.4324 35.2533M44.7397 28.4859L35.4324 35.2533M35.4324 35.2533C30.4347 32.2682 27.1835 31.418 20.6503 31.2715C22.2347 36.6947 23.938 39.4223 29.4101 43.3528M35.4324 35.2533L29.4101 43.3528M35.4324 35.2533C33.0469 37.676 31.035 40.4112 29.4101 43.3528M29.4101 43.3528C29.0785 43.9528 28.7631 44.5614 28.464 45.1777M29.4101 43.3528L28.464 45.1777M28.464 45.1777C22.6628 42.274 19.4195 42.8962 13.6425 45.8346C15.7936 51.5596 18.2967 53.794 25.3359 54.2659M28.464 45.1777L25.3359 54.2659M28.464 45.1777C27.0605 48.0693 26.0139 51.1297 25.3359 54.2659M25.3359 54.2659C25.2102 54.8476 25.0972 55.4316 24.9969 56.0179M25.3359 54.2659L24.9969 56.0179M24.9969 56.0179C19.6727 55.8298 16.8536 57.1637 12 61.0547C16.5229 65.204 19.1355 67.157 24.5933 66.7486M24.9969 56.0179L24.5933 66.7486M24.9969 56.0179C24.3898 59.5651 24.2499 63.186 24.5933 66.7486M24.5933 66.7486C24.632 67.1509 24.6769 67.5525 24.728 67.9531M24.5933 66.7486L24.728 67.9531M24.728 67.9531C18.15 70.0213 16.2612 72.5003 13.2045 77.1508C18.7442 79.3092 21.8228 80.9475 27.6581 78.4694M24.728 67.9531L27.6581 78.4694M24.728 67.9531C25.1911 71.582 26.1619 75.1346 27.6581 78.4694M27.6581 78.4694C27.8057 78.7985 27.9586 79.1255 28.1165 79.4503M27.6581 78.4694L28.1165 79.4503M28.1165 79.4503C22.9666 84.0411 22.2244 87.216 20.6503 92.8089C26.4269 92.2006 30.246 93.2498 34.1184 88.0798M28.1165 79.4503L34.1184 88.0798M28.1165 79.4503C29.6365 82.576 31.632 85.4928 34.1184 88.0798M34.1184 88.0798C34.4101 88.3833 34.7088 88.6822 35.0141 88.9765M34.1184 88.0798L35.0141 88.9765M35.0141 88.9765C32.0213 93.6153 31.7684 97.0463 32.1475 103.649C38.0752 101.731 41.6705 100.921 43.3775 94.8894M35.0141 88.9765L43.3775 94.8894M35.0141 88.9765C37.388 91.2646 40.1719 93.2662 43.3775 94.8894M43.3775 94.8894C43.9981 95.2036 44.6348 95.5039 45.2872 95.789M43.3775 94.8894L45.2872 95.789M45.2872 95.789C42.8795 102.345 44.4265 105.598 46.2726 111.533C51.1941 107.201 54.5112 105.029 55.0324 98.6705M45.2872 95.789L55.0324 98.6705M45.2872 95.789C48.2134 97.0686 51.4593 98.0493 55.0324 98.6705M55.0324 98.6705C55.4656 98.7459 55.9036 98.816 56.3464 98.8808M55.0324 98.6705L56.3464 98.8808M56.3464 98.8808C58.0285 99.1265 59.7802 99.2945 61.6022 99.3788C63.5953 99.31 65.4984 99.1414 67.3132 98.8808M56.3464 98.8808H67.3132M56.3464 98.8808C56.7176 104.856 58.2503 108.009 62.5877 113.394C65.9118 107.821 67.3316 104.668 67.3132 98.8808M67.3132 98.8808C67.5278 98.8499 67.7411 98.8177 67.9531 98.7844M67.3132 98.8808L67.9531 98.7844M67.9531 98.7844C69.8914 104.612 72.9225 107.146 78.6838 111.533C79.901 105.326 80.5424 101.848 78.2844 95.789M67.9531 98.7844L78.2844 95.789M67.9531 98.7844C71.7953 98.1798 75.2335 97.1564 78.2844 95.789M78.2844 95.789C78.6043 95.6458 78.9199 95.4986 79.2313 95.3477M78.2844 95.789L79.2313 95.3477M79.2313 95.3477C83.775 100.806 87.5261 102.09 94.3419 104.197C93.0647 96.725 92.0957 92.8672 87.8323 89.305M79.2313 95.3477L87.8323 89.305M79.2313 95.3477C82.5797 93.7256 85.4385 91.6759 87.8323 89.305M87.8323 89.305C88.149 88.9916 88.4573 88.6726 88.7575 88.348M87.8323 89.305L88.7575 88.348M59.4123 30.6145C21.9642 35.8704 19.8838 87.4436 60.3978 92.8089L59.4123 30.6145Z" stroke="#FFE382"/>
<path d="M56.8939 24.8775C58.0339 24.7367 59.2018 24.6408 60.3978 24.5922C62.5382 24.5052 64.6018 24.6064 66.5844 24.8775M56.8939 24.8775H66.5844M56.8939 24.8775C57.1547 18.9104 58.2827 16.1817 61.3832 12C65.1029 16.1718 66.0912 19.0679 66.5844 24.8775M56.8939 24.8775C56.563 24.9185 56.2345 24.9632 55.9084 25.0116M56.8939 24.8775L55.9084 25.0116M66.5844 24.8775C67.2694 24.9713 67.9445 25.0851 68.6101 25.2187M66.5844 24.8775L68.6101 25.2187M55.9084 25.0116C53.5194 19.2108 51.4356 16.6746 46.0536 13.752C44.2086 19.2626 44.1549 22.3523 46.0536 27.8631M55.9084 25.0116L46.0536 27.8631M55.9084 25.0116C52.3353 25.5417 49.0471 26.5189 46.0536 27.8631M68.6101 25.2187C70.6467 19.7937 72.5693 17.4502 77.1508 14.2994C78.9735 19.9308 79.1016 22.9937 77.1508 28.227M68.6101 25.2187L77.1508 28.227M68.6101 25.2187C71.6709 25.8326 74.5236 26.8599 77.1508 28.227M77.1508 28.227C77.7364 28.5319 78.3106 28.8534 78.8737 29.1911M77.1508 28.227L78.8737 29.1911M78.8737 29.1911C82.6833 24.8064 85.5033 23.1981 91.495 21.5263C91.5274 27.6447 90.4583 30.7669 86.9055 35.8704M78.8737 29.1911L86.9055 35.8704M78.8737 29.1911C81.8864 30.9982 84.5734 33.2661 86.9055 35.8704M86.9055 35.8704C87.1635 36.1584 87.4169 36.4503 87.6661 36.7464M86.9055 35.8704L87.6661 36.7464M87.6661 36.7464C92.4953 33.9879 95.5772 32.9748 102.226 32.8045C100.367 38.3862 98.3177 41.1558 93.3209 45.6156M87.6661 36.7464L93.3209 45.6156M87.6661 36.7464C89.918 39.4218 91.8125 42.4194 93.3209 45.6156M93.3209 45.6156C99.621 44.3334 103.154 44.3358 109.453 46.2726C105.494 51.5668 102.781 53.7226 96.5934 55.3609M93.3209 45.6156L96.5934 55.3609M93.3209 45.6156C94.7836 48.7151 95.8832 52.0013 96.5934 55.3609M96.5934 55.3609C96.6551 55.6524 96.7136 55.9443 96.7694 56.2369M96.5934 55.3609L96.7694 56.2369M96.7694 56.2369C102.4 56.7587 105.277 58.1266 110 62.1497C105.635 65.9799 102.967 67.1395 97.511 66.0916M96.7694 56.2369L97.511 66.0916M96.7694 56.2369C97.3905 59.4962 97.6456 62.8152 97.511 66.0916M97.511 66.0916C97.5005 66.3474 97.4875 66.603 97.4724 66.8581M97.511 66.0916L97.4724 66.8581M97.4724 66.8581C103.126 69.7996 105.755 71.9983 109.124 77.2603C103.63 79.1146 100.553 79.5234 95.0736 78.1363M97.4724 66.8581L95.0736 78.1363M97.4724 66.8581C97.2399 70.7461 96.4534 74.5628 95.0736 78.1363M95.0736 78.1363C94.9317 78.504 94.7834 78.8691 94.629 79.2313M95.0736 78.1363L94.629 79.2313M94.629 79.2313C100.767 83.5718 102.516 86.6981 105.401 92.3709C98.667 92.1776 94.9923 91.4785 88.7575 88.348M94.629 79.2313L88.7575 88.348M94.629 79.2313C93.2134 82.5495 91.2674 85.6362 88.7575 88.348M46.0536 27.8631C45.6091 28.0626 45.1711 28.2704 44.7397 28.4859M46.0536 27.8631L44.7397 28.4859M44.7397 28.4859C40.8904 23.6483 38.1538 21.7003 32.257 19.5553C31.5733 26.2784 32.7326 29.4906 36.6369 34.5564L44.7397 28.4859ZM44.7397 28.4859C41.1889 30.2595 38.0805 32.5638 35.4324 35.2533M44.7397 28.4859L35.4324 35.2533M35.4324 35.2533C30.4347 32.2682 27.1835 31.418 20.6503 31.2715C22.2347 36.6947 23.938 39.4223 29.4101 43.3528M35.4324 35.2533L29.4101 43.3528M35.4324 35.2533C33.0469 37.676 31.035 40.4112 29.4101 43.3528M29.4101 43.3528C29.0785 43.9528 28.7631 44.5614 28.464 45.1777M29.4101 43.3528L28.464 45.1777M28.464 45.1777C22.6628 42.274 19.4195 42.8962 13.6425 45.8346C15.7936 51.5596 18.2967 53.794 25.3359 54.2659M28.464 45.1777L25.3359 54.2659M28.464 45.1777C27.0605 48.0693 26.0139 51.1297 25.3359 54.2659M25.3359 54.2659C25.2102 54.8476 25.0972 55.4316 24.9969 56.0179M25.3359 54.2659L24.9969 56.0179M24.9969 56.0179C19.6727 55.8298 16.8536 57.1637 12 61.0547C16.5229 65.204 19.1355 67.157 24.5933 66.7486M24.9969 56.0179L24.5933 66.7486M24.9969 56.0179C24.3898 59.5651 24.2499 63.186 24.5933 66.7486M24.5933 66.7486C24.632 67.1509 24.6769 67.5525 24.728 67.9531M24.5933 66.7486L24.728 67.9531M24.728 67.9531C18.15 70.0213 16.2612 72.5003 13.2045 77.1508C18.7442 79.3092 21.8228 80.9475 27.6581 78.4694M24.728 67.9531L27.6581 78.4694M24.728 67.9531C25.1911 71.582 26.1619 75.1346 27.6581 78.4694M27.6581 78.4694C27.8057 78.7985 27.9586 79.1255 28.1165 79.4503M27.6581 78.4694L28.1165 79.4503M28.1165 79.4503C22.9666 84.0411 22.2244 87.216 20.6503 92.8089C26.4269 92.2006 30.246 93.2498 34.1184 88.0798M28.1165 79.4503L34.1184 88.0798M28.1165 79.4503C29.6365 82.576 31.632 85.4928 34.1184 88.0798M34.1184 88.0798C34.4101 88.3833 34.7088 88.6822 35.0141 88.9765M34.1184 88.0798L35.0141 88.9765M35.0141 88.9765C32.0213 93.6153 31.7684 97.0463 32.1475 103.649C38.0752 101.731 41.6705 100.921 43.3775 94.8894M35.0141 88.9765L43.3775 94.8894M35.0141 88.9765C37.388 91.2646 40.1719 93.2662 43.3775 94.8894M43.3775 94.8894C43.9981 95.2036 44.6348 95.5039 45.2872 95.789M43.3775 94.8894L45.2872 95.789M45.2872 95.789C42.8795 102.345 44.4265 105.598 46.2726 111.533C51.1941 107.201 54.5112 105.029 55.0324 98.6705M45.2872 95.789L55.0324 98.6705M45.2872 95.789C48.2134 97.0686 51.4593 98.0493 55.0324 98.6705M55.0324 98.6705C55.4656 98.7459 55.9036 98.816 56.3464 98.8808M55.0324 98.6705L56.3464 98.8808M56.3464 98.8808C58.0285 99.1265 59.7802 99.2945 61.6022 99.3788C63.5953 99.31 65.4984 99.1414 67.3132 98.8808M56.3464 98.8808H67.3132M56.3464 98.8808C56.7176 104.856 58.2503 108.009 62.5877 113.394C65.9118 107.821 67.3316 104.668 67.3132 98.8808M67.3132 98.8808C67.5278 98.8499 67.7411 98.8177 67.9531 98.7844M67.3132 98.8808L67.9531 98.7844M67.9531 98.7844C69.8914 104.612 72.9225 107.146 78.6838 111.533C79.901 105.326 80.5424 101.848 78.2844 95.789M67.9531 98.7844L78.2844 95.789M67.9531 98.7844C71.7953 98.1798 75.2335 97.1564 78.2844 95.789M78.2844 95.789C78.6043 95.6458 78.9199 95.4986 79.2313 95.3477M78.2844 95.789L79.2313 95.3477M79.2313 95.3477C83.775 100.806 87.5261 102.09 94.3419 104.197C93.0647 96.725 92.0957 92.8672 87.8323 89.305M79.2313 95.3477L87.8323 89.305M79.2313 95.3477C82.5797 93.7256 85.4385 91.6759 87.8323 89.305M87.8323 89.305C88.149 88.9916 88.4573 88.6726 88.7575 88.348M87.8323 89.305L88.7575 88.348M59.4123 30.6145C21.9642 35.8704 19.8838 87.4436 60.3978 92.8089L59.4123 30.6145Z" stroke="#FFE382"/>
<path d="M56.8939 24.8775C58.0339 24.7367 59.2018 24.6408 60.3978 24.5922C62.5382 24.5052 64.6018 24.6064 66.5844 24.8775M56.8939 24.8775H66.5844M56.8939 24.8775C57.1547 18.9104 58.2827 16.1817 61.3832 12C65.1029 16.1718 66.0912 19.0679 66.5844 24.8775M56.8939 24.8775C56.563 24.9185 56.2345 24.9632 55.9084 25.0116M56.8939 24.8775L55.9084 25.0116M66.5844 24.8775C67.2694 24.9713 67.9445 25.0851 68.6101 25.2187M66.5844 24.8775L68.6101 25.2187M55.9084 25.0116C53.5194 19.2108 51.4356 16.6746 46.0536 13.752C44.2086 19.2626 44.1549 22.3523 46.0536 27.8631M55.9084 25.0116L46.0536 27.8631M55.9084 25.0116C52.3353 25.5417 49.0471 26.5189 46.0536 27.8631M68.6101 25.2187C70.6467 19.7937 72.5693 17.4502 77.1508 14.2994C78.9735 19.9308 79.1016 22.9937 77.1508 28.227M68.6101 25.2187L77.1508 28.227M68.6101 25.2187C71.6709 25.8326 74.5236 26.8599 77.1508 28.227M77.1508 28.227C77.7364 28.5319 78.3106 28.8534 78.8737 29.1911M77.1508 28.227L78.8737 29.1911M78.8737 29.1911C82.6833 24.8064 85.5033 23.1981 91.495 21.5263C91.5274 27.6447 90.4583 30.7669 86.9055 35.8704M78.8737 29.1911L86.9055 35.8704M78.8737 29.1911C81.8864 30.9982 84.5734 33.2661 86.9055 35.8704M86.9055 35.8704C87.1635 36.1584 87.4169 36.4503 87.6661 36.7464M86.9055 35.8704L87.6661 36.7464M87.6661 36.7464C92.4953 33.9879 95.5772 32.9748 102.226 32.8045C100.367 38.3862 98.3177 41.1558 93.3209 45.6156M87.6661 36.7464L93.3209 45.6156M87.6661 36.7464C89.918 39.4218 91.8125 42.4194 93.3209 45.6156M93.3209 45.6156C99.621 44.3334 103.154 44.3358 109.453 46.2726C105.494 51.5668 102.781 53.7226 96.5934 55.3609M93.3209 45.6156L96.5934 55.3609M93.3209 45.6156C94.7836 48.7151 95.8832 52.0013 96.5934 55.3609M96.5934 55.3609C96.6551 55.6524 96.7136 55.9443 96.7694 56.2369M96.5934 55.3609L96.7694 56.2369M96.7694 56.2369C102.4 56.7587 105.277 58.1266 110 62.1497C105.635 65.9799 102.967 67.1395 97.511 66.0916M96.7694 56.2369L97.511 66.0916M96.7694 56.2369C97.3905 59.4962 97.6456 62.8152 97.511 66.0916M97.511 66.0916C97.5005 66.3474 97.4875 66.603 97.4724 66.8581M97.511 66.0916L97.4724 66.8581M97.4724 66.8581C103.126 69.7996 105.755 71.9983 109.124 77.2603C103.63 79.1146 100.553 79.5234 95.0736 78.1363M97.4724 66.8581L95.0736 78.1363M97.4724 66.8581C97.2399 70.7461 96.4534 74.5628 95.0736 78.1363M95.0736 78.1363C94.9317 78.504 94.7834 78.8691 94.629 79.2313M95.0736 78.1363L94.629 79.2313M94.629 79.2313C100.767 83.5718 102.516 86.6981 105.401 92.3709C98.667 92.1776 94.9923 91.4785 88.7575 88.348M94.629 79.2313L88.7575 88.348M94.629 79.2313C93.2134 82.5495 91.2674 85.6362 88.7575 88.348M46.0536 27.8631C45.6091 28.0626 45.1711 28.2704 44.7397 28.4859M46.0536 27.8631L44.7397 28.4859M44.7397 28.4859C40.8904 23.6483 38.1538 21.7003 32.257 19.5553C31.5733 26.2784 32.7326 29.4906 36.6369 34.5564L44.7397 28.4859ZM44.7397 28.4859C41.1889 30.2595 38.0805 32.5638 35.4324 35.2533M44.7397 28.4859L35.4324 35.2533M35.4324 35.2533C30.4347 32.2682 27.1835 31.418 20.6503 31.2715C22.2347 36.6947 23.938 39.4223 29.4101 43.3528M35.4324 35.2533L29.4101 43.3528M35.4324 35.2533C33.0469 37.676 31.035 40.4112 29.4101 43.3528M29.4101 43.3528C29.0785 43.9528 28.7631 44.5614 28.464 45.1777M29.4101 43.3528L28.464 45.1777M28.464 45.1777C22.6628 42.274 19.4195 42.8962 13.6425 45.8346C15.7936 51.5596 18.2967 53.794 25.3359 54.2659M28.464 45.1777L25.3359 54.2659M28.464 45.1777C27.0605 48.0693 26.0139 51.1297 25.3359 54.2659M25.3359 54.2659C25.2102 54.8476 25.0972 55.4316 24.9969 56.0179M25.3359 54.2659L24.9969 56.0179M24.9969 56.0179C19.6727 55.8298 16.8536 57.1637 12 61.0547C16.5229 65.204 19.1355 67.157 24.5933 66.7486M24.9969 56.0179L24.5933 66.7486M24.9969 56.0179C24.3898 59.5651 24.2499 63.186 24.5933 66.7486M24.5933 66.7486C24.632 67.1509 24.6769 67.5525 24.728 67.9531M24.5933 66.7486L24.728 67.9531M24.728 67.9531C18.15 70.0213 16.2612 72.5003 13.2045 77.1508C18.7442 79.3092 21.8228 80.9475 27.6581 78.4694M24.728 67.9531L27.6581 78.4694M24.728 67.9531C25.1911 71.582 26.1619 75.1346 27.6581 78.4694M27.6581 78.4694C27.8057 78.7985 27.9586 79.1255 28.1165 79.4503M27.6581 78.4694L28.1165 79.4503M28.1165 79.4503C22.9666 84.0411 22.2244 87.216 20.6503 92.8089C26.4269 92.2006 30.246 93.2498 34.1184 88.0798M28.1165 79.4503L34.1184 88.0798M28.1165 79.4503C29.6365 82.576 31.632 85.4928 34.1184 88.0798M34.1184 88.0798C34.4101 88.3833 34.7088 88.6822 35.0141 88.9765M34.1184 88.0798L35.0141 88.9765M35.0141 88.9765C32.0213 93.6153 31.7684 97.0463 32.1475 103.649C38.0752 101.731 41.6705 100.921 43.3775 94.8894M35.0141 88.9765L43.3775 94.8894M35.0141 88.9765C37.388 91.2646 40.1719 93.2662 43.3775 94.8894M43.3775 94.8894C43.9981 95.2036 44.6348 95.5039 45.2872 95.789M43.3775 94.8894L45.2872 95.789M45.2872 95.789C42.8795 102.345 44.4265 105.598 46.2726 111.533C51.1941 107.201 54.5112 105.029 55.0324 98.6705M45.2872 95.789L55.0324 98.6705M45.2872 95.789C48.2134 97.0686 51.4593 98.0493 55.0324 98.6705M55.0324 98.6705C55.4656 98.7459 55.9036 98.816 56.3464 98.8808M55.0324 98.6705L56.3464 98.8808M56.3464 98.8808C58.0285 99.1265 59.7802 99.2945 61.6022 99.3788C63.5953 99.31 65.4984 99.1414 67.3132 98.8808M56.3464 98.8808H67.3132M56.3464 98.8808C56.7176 104.856 58.2503 108.009 62.5877 113.394C65.9118 107.821 67.3316 104.668 67.3132 98.8808M67.3132 98.8808C67.5278 98.8499 67.7411 98.8177 67.9531 98.7844M67.3132 98.8808L67.9531 98.7844M67.9531 98.7844C69.8914 104.612 72.9225 107.146 78.6838 111.533C79.901 105.326 80.5424 101.848 78.2844 95.789M67.9531 98.7844L78.2844 95.789M67.9531 98.7844C71.7953 98.1798 75.2335 97.1564 78.2844 95.789M78.2844 95.789C78.6043 95.6458 78.9199 95.4986 79.2313 95.3477M78.2844 95.789L79.2313 95.3477M79.2313 95.3477C83.775 100.806 87.5261 102.09 94.3419 104.197C93.0647 96.725 92.0957 92.8672 87.8323 89.305M79.2313 95.3477L87.8323 89.305M79.2313 95.3477C82.5797 93.7256 85.4385 91.6759 87.8323 89.305M87.8323 89.305C88.149 88.9916 88.4573 88.6726 88.7575 88.348M87.8323 89.305L88.7575 88.348M59.4123 30.6145C21.9642 35.8704 19.8838 87.4436 60.3978 92.8089L59.4123 30.6145Z" stroke="white"/>
</g>
<defs>
<filter id="filter0_f_6_48317" x="0.232422" y="0.208496" width="121.531" height="125.059" filterUnits="userSpaceOnUse" color-interpolation-filters="sRGB">
<feFlood flood-opacity="0" result="BackgroundImageFix"/>
<feBlend mode="normal" in="SourceGraphic" in2="BackgroundImageFix" result="shape"/>
<feGaussianBlur stdDeviation="5.5" result="effect1_foregroundBlur_6_48317"/>
</filter>
<filter id="filter1_f_6_48317" x="3.92969" y="3.83447" width="114.129" height="118.053" filterUnits="userSpaceOnUse" color-interpolation-filters="sRGB">
<feFlood flood-opacity="0" result="BackgroundImageFix"/>
<feBlend mode="normal" in="SourceGraphic" in2="BackgroundImageFix" result="shape"/>
<feGaussianBlur stdDeviation="2.5" result="effect1_foregroundBlur_6_48317"/>
</filter>
<filter id="filter2_f_6_48317" x="10.2324" y="10.2085" width="101.531" height="105.059" filterUnits="userSpaceOnUse" color-interpolation-filters="sRGB">
<feFlood flood-opacity="0" result="BackgroundImageFix"/>
<feBlend mode="normal" in="SourceGraphic" in2="BackgroundImageFix" result="shape"/>
<feGaussianBlur stdDeviation="0.5" result="effect1_foregroundBlur_6_48317"/>
</filter>
</defs>
</svg>
