<svg width="53" height="53" viewBox="0 0 53 53" fill="none" xmlns="http://www.w3.org/2000/svg">
<g filter="url(#filter0_dd_250_406)">
<rect x="44" y="44" width="35" height="35" rx="17.5" transform="rotate(180 44 44)" fill="white"/>
<rect x="43.5" y="43.5" width="34" height="34" rx="17" transform="rotate(180 43.5 43.5)" stroke="#002685"/>
</g>
<path d="M20.9 35.6H19.3V31.4H20.8C21.24 30.84 21.6933 29.7533 22.16 28.14C22.64 26.5267 22.9533 24.4133 23.1 21.8L23.24 19H31.48V31.4H33.38V35.6H31.78V33H20.9V35.6ZM24.88 20.6L24.7 23.1C24.5667 25.1667 24.28 26.98 23.84 28.54C23.4267 30.0067 23.04 30.96 22.68 31.4H29.78V20.6H24.88Z" fill="#04133C"/>
<circle cx="26.5" cy="26.5" r="17" stroke="url(#paint0_linear_250_406)"/>
<defs>
<filter id="filter0_dd_250_406" x="0" y="0" width="53" height="53" filterUnits="userSpaceOnUse" color-interpolation-filters="sRGB">
<feFlood flood-opacity="0" result="BackgroundImageFix"/>
<feColorMatrix in="SourceAlpha" type="matrix" values="0 0 0 0 0 0 0 0 0 0 0 0 0 0 0 0 0 0 127 0" result="hardAlpha"/>
<feOffset dx="-3" dy="-3"/>
<feGaussianBlur stdDeviation="3"/>
<feColorMatrix type="matrix" values="0 0 0 0 0.0862745 0 0 0 0 0.721569 0 0 0 0 0.764706 0 0 0 0.2 0"/>
<feBlend mode="normal" in2="BackgroundImageFix" result="effect1_dropShadow_250_406"/>
<feColorMatrix in="SourceAlpha" type="matrix" values="0 0 0 0 0 0 0 0 0 0 0 0 0 0 0 0 0 0 127 0" result="hardAlpha"/>
<feOffset dx="3" dy="3"/>
<feGaussianBlur stdDeviation="3"/>
<feColorMatrix type="matrix" values="0 0 0 0 0.870588 0 0 0 0 0.2 0 0 0 0 0.996078 0 0 0 0.2 0"/>
<feBlend mode="normal" in2="effect1_dropShadow_250_406" result="effect2_dropShadow_250_406"/>
<feBlend mode="normal" in="SourceGraphic" in2="effect2_dropShadow_250_406" result="shape"/>
</filter>
<linearGradient id="paint0_linear_250_406" x1="14.5943" y1="14.666" x2="38.1189" y2="39.3381" gradientUnits="userSpaceOnUse">
<stop stop-color="#E22F38"/>
<stop offset="0.273958" stop-color="#DE33FE"/>
<stop offset="0.508333" stop-color="#16B8C3"/>
<stop offset="0.747917" stop-color="#069941"/>
<stop offset="1" stop-color="#FFEA03"/>
</linearGradient>
</defs>
</svg>
