<svg width="294" height="434" viewBox="0 0 294 434" fill="none" xmlns="http://www.w3.org/2000/svg">
<path d="M211.234 263.028C211.314 261.419 211.499 259.818 211.786 258.233C211.439 259.808 211.254 261.415 211.234 263.028Z" fill="url(#paint0_linear_171_80)"/>
<path d="M255.602 233.71H255.835C256.798 233.733 257.731 233.373 258.428 232.708C259.126 232.043 259.531 231.128 259.554 230.165C259.577 229.202 259.216 228.269 258.552 227.571C257.887 226.874 256.972 226.469 256.009 226.446C248.773 225.941 241.515 227.063 234.769 229.729C221.985 235.773 213.966 245.768 211.786 258.233C211.499 259.817 211.314 261.419 211.234 263.027V263.318C211.234 276.102 239.215 290.368 244.823 293.07C245.307 293.321 245.846 293.451 246.392 293.448C247.034 293.45 247.666 293.282 248.222 292.961C248.779 292.639 249.24 292.176 249.559 291.618C249.936 290.978 258.885 275.288 258.885 263.318C258.878 257.001 256.365 250.945 251.899 246.479C247.432 242.012 241.376 239.5 235.06 239.492C234.089 239.495 233.119 239.553 232.154 239.666C233.999 238.399 235.942 237.282 237.965 236.325C243.58 234.165 249.602 233.272 255.602 233.71ZM235.06 246.756C239.45 246.764 243.658 248.511 246.762 251.615C249.867 254.719 251.614 258.927 251.622 263.318C251.622 270.581 247.292 280.17 244.881 284.964C231.806 278.165 218.731 268.664 218.498 263.521V263.318C218.49 262.034 218.646 260.755 218.963 259.511C219.815 255.882 221.869 252.646 224.791 250.331C227.713 248.015 231.332 246.755 235.06 246.756Z" fill="url(#paint1_linear_171_80)"/>
<path d="M180.116 288.567C178.075 284.551 175.094 281.088 171.426 278.472C167.759 275.857 163.513 274.167 159.051 273.546C150.741 272.296 141.618 275.521 133.395 282.582C126.669 288.793 121.316 296.341 117.678 304.742C114.041 313.143 112.199 322.212 112.272 331.366C112.345 335.565 112.921 339.74 113.986 343.802C113.986 344.383 114.276 344.964 114.451 345.545C123.661 380.092 159.196 429.806 160.94 432.189C161.268 432.654 161.704 433.034 162.209 433.297C162.715 433.56 163.276 433.698 163.845 433.7C164.367 433.712 164.884 433.602 165.356 433.38C166.125 433.032 166.749 432.427 167.12 431.668C167.491 430.91 167.587 430.046 167.39 429.225C165.531 420.193 164.635 410.989 164.717 401.768C164.484 384.025 168.123 366.445 175.38 350.252C186.509 326.659 188.194 303.618 180.116 288.567ZM138.16 288.073C142.878 283.548 149.065 280.867 155.593 280.519C156.429 280.519 157.264 280.577 158.092 280.693C161.441 281.183 164.62 282.478 167.358 284.467C170.096 286.456 172.31 289.079 173.811 292.112C176.641 297.964 178.007 304.415 177.792 310.911C177.776 314.563 177.456 318.208 176.833 321.807C173.13 319.603 169.241 317.727 165.211 316.199C152.945 311.316 139.546 310.007 126.567 312.422C125.085 312.713 123.661 313.061 122.121 313.468C124.97 303.662 130.529 294.859 138.16 288.073ZM157.947 415.017C148.617 400.989 140.099 386.438 132.436 371.434C141.718 370.206 151.159 371.202 159.981 374.339C157.426 387.7 156.742 401.351 157.947 414.901V415.017ZM161.259 368.703C151.188 365.121 140.379 364.122 129.821 365.797C126.769 359.461 124.195 352.905 122.121 346.185C123.574 345.749 125.027 345.371 126.538 345.08C137.904 342.836 149.682 344.04 160.359 348.538C162.591 349.382 164.774 350.352 166.896 351.444C164.58 357.005 162.695 362.736 161.259 368.586V368.703ZM169.802 345.022C167.564 343.86 165.24 342.814 162.944 341.884C151.017 336.876 137.871 335.521 125.172 337.991C123.603 338.32 122.034 338.698 120.465 339.124C119.933 336.562 119.651 333.954 119.623 331.337C119.626 328.126 119.879 324.921 120.378 321.749C122.914 320.879 125.506 320.18 128.136 319.657C139.751 317.482 151.743 318.62 162.741 322.94C167.145 324.605 171.362 326.728 175.322 329.274C173.903 334.624 172.057 339.852 169.802 344.906V345.022Z" fill="url(#paint2_linear_171_80)"/>
<path d="M288.988 22.825C287.211 17.7418 284.221 13.1689 280.276 9.50305C276.332 5.83722 271.553 3.18922 266.353 1.78881C260.091 -0.111378 253.468 -0.50439 247.025 0.641833C240.582 1.78806 234.501 4.44105 229.278 8.38443C201.036 28.7233 186.683 80.6165 181.685 130.795C174.102 84.3066 156.465 37.2947 132.93 21.0527C128.915 18.0303 124.224 16.0303 119.264 15.2255C114.303 14.4206 109.221 14.835 104.456 16.4328C98.6765 18.2213 93.4114 21.3717 89.1034 25.619C84.7954 29.8663 81.5706 35.0862 79.7004 40.8395C68.3106 73.0621 87.313 124.781 111.981 168.248C84.9595 141.866 52.8531 120.713 29.9282 120.713C25.5243 120.527 21.1415 121.419 17.1612 123.313C13.1809 125.207 9.72378 128.045 7.09057 131.58C3.81642 135.726 1.58726 140.599 0.591076 145.787C-0.405113 150.975 -0.139125 156.327 1.36662 161.391C10.0833 194.108 60.117 225.313 103.846 243.705C130.546 255.016 158.038 264.358 186.102 271.657C186.343 271.687 186.587 271.687 186.828 271.657H187.409C187.908 271.663 188.4 271.54 188.837 271.301C189.275 271.062 189.644 270.714 189.908 270.291C190.141 269.943 213.501 233.885 246.625 181.846C278.557 131.929 303.109 58.7086 288.988 22.825ZM106.577 237.168C53.5504 214.94 15.0808 184.49 8.16562 159.531C6.95673 155.508 6.73487 151.253 7.5188 147.126C8.30273 142.999 10.0694 139.122 12.6692 135.822C14.6513 133.167 17.2587 131.043 20.2596 129.639C23.2605 128.235 26.5618 127.594 29.8701 127.774C58.577 127.774 105.909 166.795 133.337 202.969L137.695 208.781V208.984C153.85 229.962 166.809 247.395 174.886 258.059L177.995 262.185C153.707 255.293 129.857 246.939 106.577 237.168ZM182.412 256.315C174.015 245.071 158.877 224.935 140.02 199.861C136.475 194.631 132.872 189.158 129.211 183.444C92.8626 126.786 76.0975 71.6965 86.0926 43.1058C87.6348 38.3216 90.3028 33.9774 93.8723 30.4382C97.4418 26.899 101.809 24.2683 106.606 22.7669C109.074 21.9152 111.665 21.4735 114.277 21.4594C119.618 21.5843 124.788 23.3718 129.066 26.5732C142.925 36.2196 154.809 58.2728 163.497 84.6843C172.242 111.687 177.39 139.725 178.809 168.074C179.041 173.478 179.274 178.737 179.477 183.822C179.477 208.577 180.727 229.613 181.947 244.635C181.961 244.702 181.961 244.771 181.947 244.839C182.354 249.691 182.76 253.875 183.109 257.391C182.935 256.984 182.673 256.664 182.412 256.315ZM241.714 178.911C217.075 217.643 197.84 247.512 189.414 260.412C189.414 260.006 189.414 259.57 189.414 259.134V259.018C188.891 245.1 187.584 211.425 185.695 167.725C185.709 167.609 185.709 167.492 185.695 167.376C185.695 165.691 185.695 164.006 185.695 162.321C187.555 91.0184 206.034 32.5005 232.794 13.2367C238.956 8.60716 246.443 6.08098 254.15 6.03093C257.728 6.04395 261.287 6.55241 264.726 7.54182C269.023 8.7087 272.971 10.9064 276.227 13.9444C279.483 16.9823 281.948 20.7687 283.409 24.9752C296.687 58.5343 272.077 131.173 241.714 178.911Z" fill="url(#paint3_linear_171_80)"/>
<defs>
<linearGradient id="paint0_linear_171_80" x1="248.977" y1="360.77" x2="136.646" y2="60.5419" gradientUnits="userSpaceOnUse">
<stop offset="0.08" stop-color="#FCEE21"/>
<stop offset="0.12" stop-color="#F8EE21"/>
<stop offset="0.16" stop-color="#EDEF1F"/>
<stop offset="0.21" stop-color="#D9F01C"/>
<stop offset="0.25" stop-color="#BEF219"/>
<stop offset="0.29" stop-color="#9BF514"/>
<stop offset="0.33" stop-color="#70F70F"/>
<stop offset="0.38" stop-color="#3DFB08"/>
<stop offset="0.42" stop-color="#00FF00"/>
<stop offset="0.43" stop-color="#04FD08"/>
<stop offset="0.55" stop-color="#49D797"/>
<stop offset="0.61" stop-color="#65C8D0"/>
<stop offset="0.63" stop-color="#6BC0D2"/>
<stop offset="0.66" stop-color="#7DA9D7"/>
<stop offset="0.71" stop-color="#9A83E0"/>
<stop offset="0.76" stop-color="#C24FEC"/>
<stop offset="0.82" stop-color="#F50DFC"/>
<stop offset="0.83" stop-color="#FF00FF"/>
<stop offset="0.99" stop-color="#ED1C24"/>
</linearGradient>
<linearGradient id="paint1_linear_171_80" x1="274.285" y1="351.327" x2="161.927" y2="51.0667" gradientUnits="userSpaceOnUse">
<stop offset="0.08" stop-color="#FCEE21"/>
<stop offset="0.12" stop-color="#F8EE21"/>
<stop offset="0.16" stop-color="#EDEF1F"/>
<stop offset="0.21" stop-color="#D9F01C"/>
<stop offset="0.25" stop-color="#BEF219"/>
<stop offset="0.29" stop-color="#9BF514"/>
<stop offset="0.33" stop-color="#70F70F"/>
<stop offset="0.38" stop-color="#3DFB08"/>
<stop offset="0.42" stop-color="#00FF00"/>
<stop offset="0.43" stop-color="#04FD08"/>
<stop offset="0.55" stop-color="#49D797"/>
<stop offset="0.61" stop-color="#65C8D0"/>
<stop offset="0.63" stop-color="#6BC0D2"/>
<stop offset="0.66" stop-color="#7DA9D7"/>
<stop offset="0.71" stop-color="#9A83E0"/>
<stop offset="0.76" stop-color="#C24FEC"/>
<stop offset="0.82" stop-color="#F50DFC"/>
<stop offset="0.83" stop-color="#FF00FF"/>
<stop offset="0.99" stop-color="#ED1C24"/>
</linearGradient>
<linearGradient id="paint2_linear_171_80" x1="174.044" y1="388.809" x2="61.715" y2="88.578" gradientUnits="userSpaceOnUse">
<stop offset="0.08" stop-color="#FCEE21"/>
<stop offset="0.12" stop-color="#F8EE21"/>
<stop offset="0.16" stop-color="#EDEF1F"/>
<stop offset="0.21" stop-color="#D9F01C"/>
<stop offset="0.25" stop-color="#BEF219"/>
<stop offset="0.29" stop-color="#9BF514"/>
<stop offset="0.33" stop-color="#70F70F"/>
<stop offset="0.38" stop-color="#3DFB08"/>
<stop offset="0.42" stop-color="#00FF00"/>
<stop offset="0.43" stop-color="#04FD08"/>
<stop offset="0.55" stop-color="#49D797"/>
<stop offset="0.61" stop-color="#65C8D0"/>
<stop offset="0.63" stop-color="#6BC0D2"/>
<stop offset="0.66" stop-color="#7DA9D7"/>
<stop offset="0.71" stop-color="#9A83E0"/>
<stop offset="0.76" stop-color="#C24FEC"/>
<stop offset="0.82" stop-color="#F50DFC"/>
<stop offset="0.83" stop-color="#FF00FF"/>
<stop offset="0.99" stop-color="#ED1C24"/>
</linearGradient>
<linearGradient id="paint3_linear_171_80" x1="246.014" y1="361.874" x2="133.686" y2="61.6433" gradientUnits="userSpaceOnUse">
<stop offset="0.08" stop-color="#FCEE21"/>
<stop offset="0.12" stop-color="#F8EE21"/>
<stop offset="0.16" stop-color="#EDEF1F"/>
<stop offset="0.21" stop-color="#D9F01C"/>
<stop offset="0.25" stop-color="#BEF219"/>
<stop offset="0.29" stop-color="#9BF514"/>
<stop offset="0.33" stop-color="#70F70F"/>
<stop offset="0.38" stop-color="#3DFB08"/>
<stop offset="0.42" stop-color="#00FF00"/>
<stop offset="0.43" stop-color="#04FD08"/>
<stop offset="0.55" stop-color="#49D797"/>
<stop offset="0.61" stop-color="#65C8D0"/>
<stop offset="0.63" stop-color="#6BC0D2"/>
<stop offset="0.66" stop-color="#7DA9D7"/>
<stop offset="0.71" stop-color="#9A83E0"/>
<stop offset="0.76" stop-color="#C24FEC"/>
<stop offset="0.82" stop-color="#F50DFC"/>
<stop offset="0.83" stop-color="#FF00FF"/>
<stop offset="0.99" stop-color="#ED1C24"/>
</linearGradient>
</defs>
</svg>
