<svg width="457" height="457" viewBox="0 0 457 457" fill="none" xmlns="http://www.w3.org/2000/svg">
<g filter="url(#filter0_dd_110_101)">
<rect x="448" y="448" width="439" height="439" rx="219.5" transform="rotate(180 448 448)" fill="#04133C"/>
<rect x="447.5" y="447.5" width="438" height="438" rx="219" transform="rotate(180 447.5 447.5)" stroke="#002685"/>
</g>
<path d="M251.803 165.823C251.832 165.237 251.899 164.653 252.003 164.076C251.877 164.65 251.81 165.235 251.803 165.823Z" fill="url(#paint0_linear_110_101)"/>
<path d="M267.935 155.142H268.019C268.369 155.151 268.708 155.019 268.962 154.777C269.216 154.535 269.363 154.202 269.371 153.851C269.38 153.5 269.249 153.16 269.007 152.906C268.765 152.652 268.433 152.504 268.082 152.496C265.451 152.312 262.813 152.721 260.36 153.692C255.712 155.894 252.796 159.535 252.003 164.076C251.899 164.653 251.832 165.237 251.803 165.823V165.929C251.803 170.586 261.976 175.783 264.015 176.768C264.191 176.859 264.387 176.906 264.586 176.905C264.819 176.906 265.049 176.845 265.251 176.728C265.454 176.611 265.621 176.442 265.737 176.238C265.874 176.006 269.128 170.29 269.128 165.929C269.126 163.627 268.212 161.421 266.588 159.794C264.964 158.167 262.762 157.252 260.466 157.249C260.112 157.25 259.76 157.271 259.409 157.312C260.08 156.851 260.786 156.444 261.522 156.095C263.563 155.308 265.753 154.983 267.935 155.142ZM260.466 159.895C262.062 159.898 263.592 160.534 264.72 161.665C265.849 162.796 266.484 164.329 266.487 165.929C266.487 168.575 264.913 172.068 264.036 173.814C259.282 171.338 254.528 167.876 254.444 166.003V165.929C254.441 165.461 254.498 164.995 254.613 164.542C254.923 163.22 255.669 162.041 256.732 161.197C257.794 160.354 259.11 159.895 260.466 159.895Z" fill="url(#paint1_linear_110_101)"/>
<path d="M240.489 175.127C239.747 173.664 238.663 172.402 237.329 171.449C235.996 170.497 234.452 169.881 232.83 169.655C229.808 169.199 226.491 170.374 223.501 172.947C221.056 175.209 219.11 177.959 217.787 181.02C216.464 184.08 215.795 187.384 215.821 190.719C215.848 192.249 216.057 193.77 216.444 195.249C216.444 195.461 216.55 195.673 216.613 195.884C219.962 208.47 232.883 226.581 233.516 227.449C233.636 227.619 233.794 227.757 233.978 227.853C234.162 227.949 234.366 227.999 234.573 228C234.762 228.004 234.951 227.964 235.122 227.883C235.402 227.756 235.629 227.536 235.764 227.26C235.899 226.983 235.933 226.669 235.862 226.37C235.186 223.079 234.86 219.726 234.89 216.367C234.805 209.903 236.128 203.498 238.767 197.599C242.813 189.004 243.426 180.61 240.489 175.127ZM225.234 174.947C226.949 173.298 229.199 172.322 231.573 172.195C231.876 172.195 232.18 172.216 232.481 172.258C233.698 172.437 234.854 172.909 235.85 173.633C236.845 174.358 237.651 175.314 238.196 176.418C239.225 178.55 239.722 180.9 239.644 183.267C239.638 184.598 239.521 185.925 239.295 187.236C237.949 186.434 236.535 185.75 235.069 185.193C230.609 183.415 225.738 182.938 221.019 183.817C220.48 183.923 219.962 184.05 219.402 184.198C220.438 180.626 222.459 177.419 225.234 174.947ZM232.428 221.193C229.036 216.083 225.939 210.782 223.153 205.316C226.528 204.868 229.96 205.231 233.168 206.374C232.239 211.242 231.99 216.215 232.428 221.151V221.193ZM233.633 204.321C229.971 203.016 226.041 202.652 222.202 203.262C221.092 200.954 220.156 198.566 219.402 196.117C219.931 195.959 220.459 195.821 221.008 195.715C225.141 194.897 229.423 195.336 233.305 196.975C234.117 197.282 234.91 197.636 235.682 198.033C234.84 200.059 234.155 202.147 233.633 204.278V204.321ZM236.739 195.694C235.925 195.271 235.08 194.889 234.245 194.551C229.908 192.726 225.129 192.233 220.512 193.132C219.941 193.252 219.371 193.39 218.8 193.545C218.607 192.612 218.504 191.662 218.494 190.708C218.495 189.539 218.587 188.371 218.769 187.215C219.691 186.898 220.633 186.644 221.589 186.453C225.812 185.661 230.172 186.075 234.171 187.649C235.773 188.256 237.306 189.029 238.746 189.957C238.23 191.906 237.559 193.81 236.739 195.652V195.694Z" fill="url(#paint2_linear_110_101)"/>
<path d="M280.074 78.3153C279.428 76.4634 278.34 74.7975 276.906 73.462C275.472 72.1265 273.734 71.1619 271.844 70.6517C269.567 69.9594 267.159 69.8162 264.816 70.2338C262.474 70.6514 260.263 71.6179 258.364 73.0545C248.095 80.4641 242.876 99.3691 241.059 117.65C238.302 100.713 231.89 83.5867 223.332 77.6696C221.872 76.5685 220.167 75.8399 218.363 75.5467C216.56 75.2535 214.712 75.4045 212.979 75.9866C210.878 76.6381 208.964 77.7858 207.397 79.3331C205.831 80.8805 204.658 82.7821 203.978 84.8781C199.837 96.6169 206.746 115.458 215.715 131.294C205.891 121.682 194.217 113.977 185.882 113.977C184.28 113.909 182.687 114.234 181.24 114.924C179.792 115.614 178.535 116.648 177.578 117.935C176.388 119.446 175.577 121.221 175.215 123.111C174.853 125.001 174.949 126.951 175.497 128.796C178.666 140.714 196.858 152.083 212.757 158.783C222.465 162.904 232.461 166.307 242.665 168.966C242.753 168.977 242.842 168.977 242.929 168.966H243.141C243.322 168.968 243.501 168.924 243.66 168.837C243.819 168.749 243.953 168.623 244.049 168.469C244.134 168.342 252.627 155.206 264.671 136.248C276.281 118.062 285.208 91.3879 280.074 78.3153ZM213.75 156.402C194.471 148.304 180.483 137.211 177.969 128.118C177.529 126.653 177.449 125.102 177.734 123.599C178.019 122.095 178.661 120.683 179.606 119.481C180.327 118.514 181.275 117.74 182.366 117.228C183.457 116.717 184.658 116.483 185.861 116.549C196.298 116.549 213.507 130.764 223.48 143.943L225.065 146.06V146.134C230.939 153.777 235.65 160.128 238.587 164.012L239.718 165.515C230.886 163.005 222.215 159.961 213.75 156.402ZM241.323 163.377C238.27 159.281 232.766 151.945 225.91 142.81C224.621 140.905 223.311 138.911 221.98 136.83C208.764 116.189 202.668 96.1194 206.303 85.7037C206.863 83.9608 207.833 82.3782 209.131 81.0888C210.429 79.7995 212.017 78.8411 213.761 78.2941C214.659 77.9838 215.601 77.8229 216.55 77.8178C218.492 77.8633 220.372 78.5145 221.927 79.6808C226.967 83.195 231.287 91.2291 234.446 100.851C237.626 110.688 239.498 120.903 240.014 131.23C240.098 133.199 240.183 135.115 240.256 136.967C240.256 145.986 240.711 153.649 241.154 159.122C241.16 159.146 241.16 159.172 241.154 159.196C241.302 160.964 241.45 162.488 241.577 163.769C241.514 163.621 241.419 163.504 241.323 163.377ZM262.885 135.178C253.927 149.288 246.933 160.17 243.869 164.87C243.869 164.722 243.869 164.563 243.869 164.404V164.362C243.679 159.291 243.204 147.023 242.517 131.103C242.522 131.061 242.522 131.018 242.517 130.976C242.517 130.362 242.517 129.748 242.517 129.134C243.193 103.159 249.912 81.8401 259.642 74.8222C261.883 73.1356 264.605 72.2153 267.407 72.1971C268.708 72.2018 270.002 72.3871 271.252 72.7475C272.815 73.1726 274.25 73.9733 275.434 75.08C276.618 76.1868 277.514 77.5662 278.045 79.0986C282.873 91.3244 273.925 117.787 262.885 135.178Z" fill="url(#paint3_linear_110_101)"/>
<g filter="url(#filter1_d_110_101)">
<path d="M98.6406 288.523V288.23H106.121C108.309 288.23 109.858 288.322 110.77 288.504C111.681 288.686 112.553 289.038 113.387 289.559C114.22 290.066 114.93 290.809 115.516 291.785C116.102 292.749 116.395 293.849 116.395 295.086C116.395 297.521 115.197 299.441 112.801 300.848C114.871 301.199 116.434 302.059 117.488 303.426C118.543 304.78 119.07 306.427 119.07 308.367C119.07 310.177 118.615 311.824 117.703 313.309C116.805 314.793 115.77 315.783 114.598 316.277C113.439 316.759 111.811 317 109.715 317H98.6016V316.727C99.487 316.727 100.053 316.551 100.301 316.199C100.548 315.835 100.672 314.917 100.672 313.445V291.766C100.672 290.724 100.639 290.014 100.574 289.637C100.522 289.259 100.333 288.979 100.008 288.797C99.6823 288.615 99.2266 288.523 98.6406 288.523ZM103.992 288.836V301.473H107.488C109.858 301.473 111.427 300.796 112.195 299.441C112.977 298.087 113.367 296.74 113.367 295.398C113.367 293.953 113.068 292.749 112.469 291.785C111.87 290.809 110.991 290.073 109.832 289.578C108.686 289.083 106.993 288.836 104.754 288.836H103.992ZM106.238 302.078H103.992V311.199C103.992 312.462 104.038 313.283 104.129 313.66C104.233 314.038 104.454 314.435 104.793 314.852C105.145 315.268 105.704 315.607 106.473 315.867C107.241 316.115 108.348 316.238 109.793 316.238C112.033 316.238 113.615 315.724 114.539 314.695C115.464 313.654 115.926 312.117 115.926 310.086C115.926 307.977 115.516 306.258 114.695 304.93C113.875 303.602 112.944 302.794 111.902 302.508C110.874 302.221 108.986 302.078 106.238 302.078ZM132.283 288.562V288.23H150.369V292.195H150.076C149.685 290.724 149.353 289.858 149.08 289.598C148.819 289.337 148.168 289.207 147.127 289.207H137.634V302.117H146.443C147.315 302.117 147.869 302.039 148.103 301.883C148.338 301.714 148.461 301.473 148.474 301.16H148.767V303.875H148.474C148.409 303.497 148.253 303.243 148.005 303.113C147.771 302.983 147.328 302.918 146.677 302.918H137.634V311.805C137.634 313.146 137.758 314.116 138.005 314.715C138.253 315.301 138.643 315.672 139.177 315.828C139.724 315.971 140.545 316.043 141.638 316.043H146.716C148.331 316.043 149.36 315.991 149.802 315.887C150.258 315.77 150.642 315.548 150.955 315.223C151.267 314.884 151.508 314.155 151.677 313.035H151.951V317H132.283V316.727C132.947 316.688 133.448 316.564 133.787 316.355C134.138 316.134 134.314 315.574 134.314 314.676V291.434C134.314 290.379 134.223 289.637 134.041 289.207C133.858 288.777 133.272 288.562 132.283 288.562ZM164.363 288.562V288.23H182.448V292.195H182.155C181.765 290.724 181.433 289.858 181.159 289.598C180.899 289.337 180.248 289.207 179.206 289.207H169.714V302.117H178.523C179.395 302.117 179.948 302.039 180.183 301.883C180.417 301.714 180.541 301.473 180.554 301.16H180.847V303.875H180.554C180.489 303.497 180.333 303.243 180.085 303.113C179.851 302.983 179.408 302.918 178.757 302.918H169.714V311.805C169.714 313.146 169.838 314.116 170.085 314.715C170.333 315.301 170.723 315.672 171.257 315.828C171.804 315.971 172.624 316.043 173.718 316.043H178.796C180.411 316.043 181.439 315.991 181.882 315.887C182.338 315.77 182.722 315.548 183.034 315.223C183.347 314.884 183.588 314.155 183.757 313.035H184.03V317H164.363V316.727C165.027 316.688 165.528 316.564 165.866 316.355C166.218 316.134 166.394 315.574 166.394 314.676V291.434C166.394 290.379 166.303 289.637 166.12 289.207C165.938 288.777 165.352 288.562 164.363 288.562ZM217.555 302.645H201.755V313.719C201.755 314.76 201.8 315.424 201.891 315.711C201.996 315.997 202.178 316.238 202.438 316.434C202.712 316.629 203.18 316.727 203.845 316.727V317H196.403V316.727C197.757 316.818 198.434 316.16 198.434 314.754V291.609C198.434 290.294 198.324 289.461 198.102 289.109C197.894 288.758 197.328 288.562 196.403 288.523V288.23H203.845V288.523C203.024 288.576 202.471 288.732 202.184 288.992C201.898 289.253 201.755 289.786 201.755 290.594V301.844H217.555V291.551C217.555 290.379 217.451 289.585 217.243 289.168C217.048 288.738 216.488 288.523 215.563 288.523V288.23H222.927V288.523C222.341 288.523 221.904 288.595 221.618 288.738C221.332 288.868 221.136 289.077 221.032 289.363C220.928 289.65 220.876 290.379 220.876 291.551V313.641C220.876 314.773 220.928 315.483 221.032 315.77C221.136 316.043 221.318 316.271 221.579 316.453C221.839 316.635 222.289 316.727 222.927 316.727V317H215.563V316.727C216.358 316.727 216.885 316.564 217.145 316.238C217.419 315.913 217.555 315.034 217.555 313.602V302.645ZM251.608 303.758H243.209L238.854 314.637C238.554 315.418 238.405 315.9 238.405 316.082C238.405 316.512 238.724 316.727 239.362 316.727V317H235.084V316.727C235.657 316.727 236.139 316.59 236.53 316.316C236.92 316.03 237.35 315.301 237.819 314.129L248.248 287.801H248.737L259.01 313.23C259.01 313.361 259.271 313.979 259.791 315.086C260.325 316.18 261.133 316.727 262.213 316.727V317H255.495V316.727C256.107 316.727 256.413 316.486 256.413 316.004C256.413 315.678 256.263 315.158 255.963 314.441C255.911 314.389 255.866 314.305 255.827 314.188C255.801 314.057 255.781 313.992 255.768 313.992L251.608 303.758ZM243.483 302.957H251.256L247.37 293.152L243.483 302.957ZM274.43 288.523V288.23H282.633C285.549 288.23 287.665 288.556 288.98 289.207C290.309 289.858 291.272 290.672 291.871 291.648C292.483 292.612 292.789 293.888 292.789 295.477C292.789 297.911 291.949 299.741 290.27 300.965C288.59 302.189 286.311 302.775 283.434 302.723V302.449C285.257 302.449 286.734 301.889 287.867 300.77C289.013 299.65 289.586 298.178 289.586 296.355C289.586 294.936 289.306 293.68 288.746 292.586C288.199 291.479 287.424 290.639 286.422 290.066C285.419 289.493 283.889 289.207 281.832 289.207H279.781V313.836C279.781 315.229 279.938 316.062 280.25 316.336C280.562 316.596 281.155 316.727 282.027 316.727V317H274.43V316.727C275.784 316.727 276.461 316.108 276.461 314.871V291.043C276.461 290.027 276.331 289.357 276.07 289.031C275.81 288.693 275.263 288.523 274.43 288.523ZM306.08 288.523V288.23H314.283C317.199 288.23 319.315 288.556 320.63 289.207C321.959 289.858 322.922 290.672 323.521 291.648C324.133 292.612 324.439 293.888 324.439 295.477C324.439 297.911 323.599 299.741 321.92 300.965C320.24 302.189 317.961 302.775 315.084 302.723V302.449C316.907 302.449 318.384 301.889 319.517 300.77C320.663 299.65 321.236 298.178 321.236 296.355C321.236 294.936 320.956 293.68 320.396 292.586C319.849 291.479 319.074 290.639 318.072 290.066C317.069 289.493 315.539 289.207 313.482 289.207H311.431V313.836C311.431 315.229 311.587 316.062 311.9 316.336C312.212 316.596 312.805 316.727 313.677 316.727V317H306.08V316.727C307.434 316.727 308.111 316.108 308.111 314.871V291.043C308.111 290.027 307.981 289.357 307.72 289.031C307.46 288.693 306.913 288.523 306.08 288.523ZM354.488 288.23H358.804V288.523C358.257 288.562 357.808 288.693 357.456 288.914C357.105 289.135 356.701 289.591 356.245 290.281L349.214 300.926V314.129C349.214 315.197 349.351 315.9 349.624 316.238C349.898 316.564 350.49 316.727 351.402 316.727V317H343.726V316.727C345.197 316.818 345.933 316.238 345.933 314.988L345.894 314.168V302L338.843 290.32C338.101 289.083 337.274 288.484 336.363 288.523V288.23H343.159V288.523C342.521 288.523 342.202 288.764 342.202 289.246C342.202 289.493 342.365 289.878 342.691 290.398L348.491 299.969L354.839 290.32C354.956 290.216 355.086 290.027 355.23 289.754C355.373 289.467 355.445 289.272 355.445 289.168C355.445 288.738 355.165 288.523 354.605 288.523H354.488V288.23Z" fill="white"/>
</g>
<defs>
<filter id="filter0_dd_110_101" x="0" y="0" width="457" height="457" filterUnits="userSpaceOnUse" color-interpolation-filters="sRGB">
<feFlood flood-opacity="0" result="BackgroundImageFix"/>
<feColorMatrix in="SourceAlpha" type="matrix" values="0 0 0 0 0 0 0 0 0 0 0 0 0 0 0 0 0 0 127 0" result="hardAlpha"/>
<feOffset dx="-3" dy="-3"/>
<feGaussianBlur stdDeviation="3"/>
<feColorMatrix type="matrix" values="0 0 0 0 0.0862745 0 0 0 0 0.721569 0 0 0 0 0.764706 0 0 0 0.2 0"/>
<feBlend mode="normal" in2="BackgroundImageFix" result="effect1_dropShadow_110_101"/>
<feColorMatrix in="SourceAlpha" type="matrix" values="0 0 0 0 0 0 0 0 0 0 0 0 0 0 0 0 0 0 127 0" result="hardAlpha"/>
<feOffset dx="3" dy="3"/>
<feGaussianBlur stdDeviation="3"/>
<feColorMatrix type="matrix" values="0 0 0 0 0.870588 0 0 0 0 0.2 0 0 0 0 0.996078 0 0 0 0.2 0"/>
<feBlend mode="normal" in2="effect1_dropShadow_110_101" result="effect2_dropShadow_110_101"/>
<feBlend mode="normal" in="SourceGraphic" in2="effect2_dropShadow_110_101" result="shape"/>
</filter>
<filter id="filter1_d_110_101" x="85.6016" y="277.801" width="286.203" height="55.1992" filterUnits="userSpaceOnUse" color-interpolation-filters="sRGB">
<feFlood flood-opacity="0" result="BackgroundImageFix"/>
<feColorMatrix in="SourceAlpha" type="matrix" values="0 0 0 0 0 0 0 0 0 0 0 0 0 0 0 0 0 0 127 0" result="hardAlpha"/>
<feOffset dy="3"/>
<feGaussianBlur stdDeviation="6.5"/>
<feComposite in2="hardAlpha" operator="out"/>
<feColorMatrix type="matrix" values="0 0 0 0 0 0 0 0 0 0.7 0 0 0 0 1 0 0 0 1 0"/>
<feBlend mode="normal" in2="BackgroundImageFix" result="effect1_dropShadow_110_101"/>
<feBlend mode="normal" in="SourceGraphic" in2="effect1_dropShadow_110_101" result="shape"/>
</filter>
<linearGradient id="paint0_linear_110_101" x1="265.525" y1="201.431" x2="224.542" y2="92.1088" gradientUnits="userSpaceOnUse">
<stop offset="0.08" stop-color="#FCEE21"/>
<stop offset="0.12" stop-color="#F8EE21"/>
<stop offset="0.16" stop-color="#EDEF1F"/>
<stop offset="0.21" stop-color="#D9F01C"/>
<stop offset="0.25" stop-color="#BEF219"/>
<stop offset="0.29" stop-color="#9BF514"/>
<stop offset="0.33" stop-color="#70F70F"/>
<stop offset="0.38" stop-color="#3DFB08"/>
<stop offset="0.42" stop-color="#00FF00"/>
<stop offset="0.43" stop-color="#04FD08"/>
<stop offset="0.55" stop-color="#49D797"/>
<stop offset="0.61" stop-color="#65C8D0"/>
<stop offset="0.63" stop-color="#6BC0D2"/>
<stop offset="0.66" stop-color="#7DA9D7"/>
<stop offset="0.71" stop-color="#9A83E0"/>
<stop offset="0.76" stop-color="#C24FEC"/>
<stop offset="0.82" stop-color="#F50DFC"/>
<stop offset="0.83" stop-color="#FF00FF"/>
<stop offset="0.99" stop-color="#ED1C24"/>
</linearGradient>
<linearGradient id="paint1_linear_110_101" x1="274.727" y1="197.991" x2="233.734" y2="88.6571" gradientUnits="userSpaceOnUse">
<stop offset="0.08" stop-color="#FCEE21"/>
<stop offset="0.12" stop-color="#F8EE21"/>
<stop offset="0.16" stop-color="#EDEF1F"/>
<stop offset="0.21" stop-color="#D9F01C"/>
<stop offset="0.25" stop-color="#BEF219"/>
<stop offset="0.29" stop-color="#9BF514"/>
<stop offset="0.33" stop-color="#70F70F"/>
<stop offset="0.38" stop-color="#3DFB08"/>
<stop offset="0.42" stop-color="#00FF00"/>
<stop offset="0.43" stop-color="#04FD08"/>
<stop offset="0.55" stop-color="#49D797"/>
<stop offset="0.61" stop-color="#65C8D0"/>
<stop offset="0.63" stop-color="#6BC0D2"/>
<stop offset="0.66" stop-color="#7DA9D7"/>
<stop offset="0.71" stop-color="#9A83E0"/>
<stop offset="0.76" stop-color="#C24FEC"/>
<stop offset="0.82" stop-color="#F50DFC"/>
<stop offset="0.83" stop-color="#FF00FF"/>
<stop offset="0.99" stop-color="#ED1C24"/>
</linearGradient>
<linearGradient id="paint2_linear_110_101" x1="238.281" y1="211.646" x2="197.298" y2="102.323" gradientUnits="userSpaceOnUse">
<stop offset="0.08" stop-color="#FCEE21"/>
<stop offset="0.12" stop-color="#F8EE21"/>
<stop offset="0.16" stop-color="#EDEF1F"/>
<stop offset="0.21" stop-color="#D9F01C"/>
<stop offset="0.25" stop-color="#BEF219"/>
<stop offset="0.29" stop-color="#9BF514"/>
<stop offset="0.33" stop-color="#70F70F"/>
<stop offset="0.38" stop-color="#3DFB08"/>
<stop offset="0.42" stop-color="#00FF00"/>
<stop offset="0.43" stop-color="#04FD08"/>
<stop offset="0.55" stop-color="#49D797"/>
<stop offset="0.61" stop-color="#65C8D0"/>
<stop offset="0.63" stop-color="#6BC0D2"/>
<stop offset="0.66" stop-color="#7DA9D7"/>
<stop offset="0.71" stop-color="#9A83E0"/>
<stop offset="0.76" stop-color="#C24FEC"/>
<stop offset="0.82" stop-color="#F50DFC"/>
<stop offset="0.83" stop-color="#FF00FF"/>
<stop offset="0.99" stop-color="#ED1C24"/>
</linearGradient>
<linearGradient id="paint3_linear_110_101" x1="264.449" y1="201.833" x2="223.466" y2="92.5097" gradientUnits="userSpaceOnUse">
<stop offset="0.08" stop-color="#FCEE21"/>
<stop offset="0.12" stop-color="#F8EE21"/>
<stop offset="0.16" stop-color="#EDEF1F"/>
<stop offset="0.21" stop-color="#D9F01C"/>
<stop offset="0.25" stop-color="#BEF219"/>
<stop offset="0.29" stop-color="#9BF514"/>
<stop offset="0.33" stop-color="#70F70F"/>
<stop offset="0.38" stop-color="#3DFB08"/>
<stop offset="0.42" stop-color="#00FF00"/>
<stop offset="0.43" stop-color="#04FD08"/>
<stop offset="0.55" stop-color="#49D797"/>
<stop offset="0.61" stop-color="#65C8D0"/>
<stop offset="0.63" stop-color="#6BC0D2"/>
<stop offset="0.66" stop-color="#7DA9D7"/>
<stop offset="0.71" stop-color="#9A83E0"/>
<stop offset="0.76" stop-color="#C24FEC"/>
<stop offset="0.82" stop-color="#F50DFC"/>
<stop offset="0.83" stop-color="#FF00FF"/>
<stop offset="0.99" stop-color="#ED1C24"/>
</linearGradient>
</defs>
</svg>
