<svg width="523" height="523" viewBox="0 0 523 523" fill="none" xmlns="http://www.w3.org/2000/svg">
<path d="M261.5 523C405.922 523 523 405.922 523 261.5C523 117.078 405.922 0 261.5 0C117.078 0 0 117.078 0 261.5C0 405.922 117.078 523 261.5 523Z" fill="#31285E"/>
<path d="M347.602 277.71H347.835C348.798 277.733 349.731 277.373 350.428 276.708C351.126 276.043 351.531 275.128 351.554 274.165C351.577 273.202 351.216 272.269 350.552 271.571C349.887 270.874 348.972 270.469 348.009 270.446C340.773 269.941 333.515 271.063 326.769 273.729C313.985 279.773 305.966 289.768 303.786 302.233C303.499 303.817 303.314 305.419 303.234 307.027V307.318C303.234 320.102 331.215 334.368 336.823 337.07C337.307 337.321 337.846 337.451 338.392 337.448C339.034 337.45 339.666 337.282 340.222 336.961C340.779 336.639 341.24 336.176 341.559 335.618C341.936 334.978 350.885 319.288 350.885 307.318C350.878 301.001 348.365 294.945 343.899 290.479C339.432 286.012 333.376 283.5 327.06 283.492C326.089 283.495 325.119 283.553 324.154 283.666C325.999 282.399 327.942 281.282 329.965 280.325C335.58 278.165 341.602 277.272 347.602 277.71ZM327.06 290.756C331.45 290.764 335.658 292.511 338.762 295.615C341.867 298.719 343.614 302.927 343.622 307.318C343.622 314.581 339.292 324.17 336.881 328.964C323.806 322.165 310.731 312.664 310.498 307.521V307.318C310.49 306.034 310.646 304.755 310.963 303.511C311.815 299.882 313.869 296.646 316.791 294.331C319.713 292.015 323.332 290.755 327.06 290.756Z" fill="url(#paint0_linear_110_86)"/>
<path d="M272.116 332.567C270.075 328.551 267.094 325.088 263.426 322.472C259.759 319.857 255.513 318.167 251.051 317.546C242.741 316.296 233.618 319.521 225.395 326.582C218.669 332.793 213.316 340.341 209.678 348.742C206.041 357.143 204.199 366.212 204.272 375.366C204.345 379.565 204.921 383.74 205.986 387.802C205.986 388.383 206.276 388.964 206.451 389.545C215.661 424.092 251.196 473.806 252.94 476.189C253.268 476.654 253.704 477.034 254.209 477.297C254.715 477.56 255.276 477.698 255.845 477.7C256.367 477.712 256.884 477.602 257.356 477.38C258.125 477.032 258.749 476.427 259.12 475.668C259.491 474.91 259.587 474.046 259.39 473.225C257.531 464.193 256.635 454.989 256.717 445.768C256.484 428.025 260.123 410.445 267.38 394.252C278.509 370.659 280.194 347.618 272.116 332.567ZM230.16 332.073C234.878 327.548 241.065 324.867 247.593 324.519C248.429 324.519 249.264 324.577 250.092 324.693C253.441 325.183 256.62 326.478 259.358 328.467C262.096 330.456 264.31 333.079 265.811 336.112C268.641 341.964 270.007 348.415 269.792 354.911C269.776 358.563 269.456 362.208 268.833 365.807C265.13 363.603 261.241 361.727 257.211 360.199C244.945 355.316 231.546 354.007 218.567 356.422C217.085 356.713 215.661 357.061 214.121 357.468C216.97 347.662 222.529 338.859 230.16 332.073ZM249.947 459.017C240.617 444.989 232.099 430.438 224.436 415.434C233.718 414.206 243.159 415.202 251.981 418.339C249.426 431.7 248.742 445.351 249.947 458.901V459.017ZM253.259 412.703C243.188 409.121 232.379 408.122 221.821 409.797C218.769 403.461 216.195 396.905 214.121 390.185C215.574 389.749 217.027 389.371 218.538 389.08C229.904 386.836 241.682 388.04 252.359 392.538C254.591 393.382 256.774 394.352 258.896 395.444C256.58 401.005 254.695 406.736 253.259 412.586V412.703ZM261.802 389.022C259.564 387.86 257.24 386.814 254.944 385.884C243.017 380.876 229.871 379.521 217.172 381.991C215.603 382.32 214.034 382.698 212.465 383.124C211.933 380.562 211.651 377.954 211.623 375.337C211.626 372.126 211.879 368.921 212.378 365.749C214.914 364.879 217.506 364.18 220.136 363.657C231.751 361.482 243.743 362.62 254.741 366.94C259.145 368.605 263.362 370.728 267.322 373.274C265.903 378.624 264.057 383.852 261.802 388.906V389.022Z" fill="url(#paint1_linear_110_86)"/>
<path d="M380.988 66.825C379.211 61.7418 376.221 57.1689 372.276 53.503C368.332 49.8372 363.553 47.1892 358.353 45.7888C352.091 43.8886 345.468 43.4956 339.025 44.6418C332.582 45.7881 326.501 48.4411 321.278 52.3844C293.036 72.7233 278.683 124.617 273.685 174.795C266.102 128.307 248.465 81.2947 224.93 65.0527C220.915 62.0303 216.224 60.0303 211.264 59.2255C206.303 58.4206 201.221 58.835 196.456 60.4328C190.676 62.2213 185.411 65.3717 181.103 69.619C176.795 73.8663 173.571 79.0862 171.7 84.8395C160.311 117.062 179.313 168.781 203.981 212.248C176.959 185.866 144.853 164.713 121.928 164.713C117.524 164.527 113.141 165.419 109.161 167.313C105.181 169.207 101.724 172.045 99.0906 175.58C95.8164 179.726 93.5873 184.599 92.5911 189.787C91.5949 194.975 91.8609 200.327 93.3666 205.391C102.083 238.108 152.117 269.313 195.846 287.705C222.546 299.016 250.038 308.358 278.102 315.657C278.343 315.687 278.587 315.687 278.828 315.657H279.409C279.908 315.663 280.4 315.54 280.837 315.301C281.275 315.062 281.644 314.714 281.908 314.291C282.141 313.943 305.501 277.885 338.625 225.846C370.557 175.929 395.109 102.709 380.988 66.825ZM198.577 281.168C145.55 258.94 107.081 228.49 100.166 203.531C98.9567 199.508 98.7349 195.253 99.5188 191.126C100.303 186.999 102.069 183.122 104.669 179.822C106.651 177.167 109.259 175.043 112.26 173.639C115.26 172.235 118.562 171.594 121.87 171.774C150.577 171.774 197.909 210.795 225.337 246.969L229.695 252.781V252.984C245.85 273.962 258.809 291.395 266.886 302.059L269.995 306.185C245.706 299.293 221.857 290.939 198.577 281.168ZM274.412 300.315C266.015 289.071 250.877 268.935 232.02 243.861C228.475 238.631 224.872 233.158 221.211 227.444C184.863 170.786 168.098 115.696 178.093 87.1058C179.635 82.3216 182.303 77.9774 185.872 74.4382C189.442 70.899 193.809 68.2683 198.606 66.7669C201.074 65.9152 203.665 65.4735 206.277 65.4594C211.618 65.5843 216.788 67.3718 221.066 70.5732C234.925 80.2197 246.809 102.273 255.497 128.684C264.242 155.687 269.39 183.725 270.809 212.074C271.041 217.478 271.274 222.737 271.477 227.822C271.477 252.577 272.727 273.613 273.947 288.635C273.961 288.702 273.961 288.771 273.947 288.839C274.354 293.691 274.76 297.875 275.109 301.391C274.935 300.984 274.673 300.664 274.412 300.315ZM333.714 222.911C309.075 261.643 289.84 291.512 281.414 304.412C281.414 304.006 281.414 303.57 281.414 303.134V303.018C280.891 289.1 279.584 255.425 277.695 211.725C277.709 211.609 277.709 211.492 277.695 211.376C277.695 209.691 277.695 208.006 277.695 206.321C279.555 135.018 298.034 76.5005 324.794 57.2367C330.956 52.6072 338.443 50.081 346.15 50.0309C349.728 50.044 353.287 50.5524 356.726 51.5418C361.023 52.7087 364.971 54.9064 368.227 57.9444C371.483 60.9823 373.948 64.7687 375.409 68.9752C388.687 102.534 364.077 175.173 333.714 222.911Z" fill="url(#paint2_linear_110_86)"/>
<defs>
<linearGradient id="paint0_linear_110_86" x1="366.285" y1="395.327" x2="253.927" y2="95.0667" gradientUnits="userSpaceOnUse">
<stop offset="0.08" stop-color="#FCEE21"/>
<stop offset="0.12" stop-color="#F8EE21"/>
<stop offset="0.16" stop-color="#EDEF1F"/>
<stop offset="0.21" stop-color="#D9F01C"/>
<stop offset="0.25" stop-color="#BEF219"/>
<stop offset="0.29" stop-color="#9BF514"/>
<stop offset="0.33" stop-color="#70F70F"/>
<stop offset="0.38" stop-color="#3DFB08"/>
<stop offset="0.42" stop-color="#00FF00"/>
<stop offset="0.43" stop-color="#04FD08"/>
<stop offset="0.55" stop-color="#49D797"/>
<stop offset="0.61" stop-color="#65C8D0"/>
<stop offset="0.63" stop-color="#6BC0D2"/>
<stop offset="0.66" stop-color="#7DA9D7"/>
<stop offset="0.71" stop-color="#9A83E0"/>
<stop offset="0.76" stop-color="#C24FEC"/>
<stop offset="0.82" stop-color="#F50DFC"/>
<stop offset="0.83" stop-color="#FF00FF"/>
<stop offset="0.99" stop-color="#ED1C24"/>
</linearGradient>
<linearGradient id="paint1_linear_110_86" x1="266.044" y1="432.809" x2="153.715" y2="132.578" gradientUnits="userSpaceOnUse">
<stop offset="0.08" stop-color="#FCEE21"/>
<stop offset="0.12" stop-color="#F8EE21"/>
<stop offset="0.16" stop-color="#EDEF1F"/>
<stop offset="0.21" stop-color="#D9F01C"/>
<stop offset="0.25" stop-color="#BEF219"/>
<stop offset="0.29" stop-color="#9BF514"/>
<stop offset="0.33" stop-color="#70F70F"/>
<stop offset="0.38" stop-color="#3DFB08"/>
<stop offset="0.42" stop-color="#00FF00"/>
<stop offset="0.43" stop-color="#04FD08"/>
<stop offset="0.55" stop-color="#49D797"/>
<stop offset="0.61" stop-color="#65C8D0"/>
<stop offset="0.63" stop-color="#6BC0D2"/>
<stop offset="0.66" stop-color="#7DA9D7"/>
<stop offset="0.71" stop-color="#9A83E0"/>
<stop offset="0.76" stop-color="#C24FEC"/>
<stop offset="0.82" stop-color="#F50DFC"/>
<stop offset="0.83" stop-color="#FF00FF"/>
<stop offset="0.99" stop-color="#ED1C24"/>
</linearGradient>
<linearGradient id="paint2_linear_110_86" x1="338.014" y1="405.874" x2="225.686" y2="105.643" gradientUnits="userSpaceOnUse">
<stop offset="0.08" stop-color="#FCEE21"/>
<stop offset="0.12" stop-color="#F8EE21"/>
<stop offset="0.16" stop-color="#EDEF1F"/>
<stop offset="0.21" stop-color="#D9F01C"/>
<stop offset="0.25" stop-color="#BEF219"/>
<stop offset="0.29" stop-color="#9BF514"/>
<stop offset="0.33" stop-color="#70F70F"/>
<stop offset="0.38" stop-color="#3DFB08"/>
<stop offset="0.42" stop-color="#00FF00"/>
<stop offset="0.43" stop-color="#04FD08"/>
<stop offset="0.55" stop-color="#49D797"/>
<stop offset="0.61" stop-color="#65C8D0"/>
<stop offset="0.63" stop-color="#6BC0D2"/>
<stop offset="0.66" stop-color="#7DA9D7"/>
<stop offset="0.71" stop-color="#9A83E0"/>
<stop offset="0.76" stop-color="#C24FEC"/>
<stop offset="0.82" stop-color="#F50DFC"/>
<stop offset="0.83" stop-color="#FF00FF"/>
<stop offset="0.99" stop-color="#ED1C24"/>
</linearGradient>
</defs>
</svg>
