<svg width="30" height="30" viewBox="0 0 30 30" fill="none" xmlns="http://www.w3.org/2000/svg">
<circle cx="15" cy="15" r="14.5" fill="#30333A" stroke="#854FC8"/>
<path d="M18.7222 8.82324C17.8604 8.82324 17.0702 9.09822 16.3737 9.64057C15.706 10.1605 15.2615 10.8228 14.9998 11.3043C14.7381 10.8227 14.2935 10.1605 13.6258 9.64057C12.9293 9.09822 12.1392 8.82324 11.2773 8.82324C8.87228 8.82324 7.05859 10.804 7.05859 13.4307C7.05859 16.2684 9.3213 18.2099 12.7467 21.1491C13.3284 21.6482 13.9878 22.214 14.6731 22.8174C14.7634 22.897 14.8794 22.9409 14.9998 22.9409C15.1201 22.9409 15.2361 22.897 15.3265 22.8174C16.0118 22.2139 16.6711 21.6482 17.2532 21.1488C20.6782 18.2099 22.9409 16.2684 22.9409 13.4307C22.9409 10.804 21.1273 8.82324 18.7222 8.82324Z" fill="#DE33FE"/>
</svg>
