<svg width="17" height="18" viewBox="0 0 17 18" fill="none" xmlns="http://www.w3.org/2000/svg">
<path id="search" d="M16.5133 15.8477L12.5466 11.7221C13.5665 10.5097 14.1253 8.98423 14.1253 7.39615C14.1253 3.68575 11.1066 0.666992 7.39615 0.666992C3.68575 0.666992 0.666992 3.68575 0.666992 7.39615C0.666992 11.1066 3.68575 14.1253 7.39615 14.1253C8.78909 14.1253 10.1165 13.7052 11.2514 12.9076L15.2482 17.0645C15.4153 17.238 15.64 17.3337 15.8807 17.3337C16.1087 17.3337 16.3249 17.2468 16.489 17.0888C16.8377 16.7532 16.8489 16.1967 16.5133 15.8477ZM7.39615 2.42243C10.1387 2.42243 12.3699 4.65358 12.3699 7.39615C12.3699 10.1387 10.1387 12.3699 7.39615 12.3699C4.65358 12.3699 2.42243 10.1387 2.42243 7.39615C2.42243 4.65358 4.65358 2.42243 7.39615 2.42243Z" fill="white"/>
</svg>
