<svg width="16" height="16" viewBox="0 0 16 16" fill="none" xmlns="http://www.w3.org/2000/svg">
<g clip-path="url(#clip0_6_11220)">
<path d="M15.1783 6.20312C14.8439 5.78438 14.3877 5.55312 13.8939 5.55312H12.7658C12.6596 2.65937 10.5627 0.34375 8.00018 0.34375C5.43768 0.34375 3.34081 2.65937 3.23456 5.55312H2.10643C1.61268 5.55312 1.15643 5.78438 0.822058 6.20312C0.400183 6.72813 0.247058 7.45938 0.406433 8.1625L1.75956 14.125C1.96268 15.025 2.66268 15.6562 3.45956 15.6562H12.5377C13.3346 15.6562 14.0346 15.0281 14.2377 14.125L15.5939 8.1625C15.7533 7.45938 15.6002 6.72813 15.1783 6.20312ZM8.00018 1.61875C9.86268 1.61875 11.3877 3.3625 11.4877 5.55312H4.51268C4.61268 3.36562 6.13768 1.61875 8.00018 1.61875ZM14.3502 7.87813L12.9971 13.8438C12.9283 14.15 12.7314 14.3813 12.5408 14.3813H3.45956C3.26893 14.3813 3.07206 14.15 3.00331 13.8438L1.65018 7.87813C1.57831 7.5625 1.53456 6.82812 2.10643 6.82812H13.8939C14.5096 6.82812 14.4221 7.5625 14.3502 7.87813Z" fill="white"/>
<path d="M4.83477 8.09668C4.48164 8.09668 4.19727 8.38105 4.19727 8.73418V12.7186C4.19727 13.0717 4.48164 13.3561 4.83477 13.3561C5.18789 13.3561 5.47227 13.0717 5.47227 12.7186V8.73418C5.47539 8.38418 5.18789 8.09668 4.83477 8.09668Z" fill="white"/>
<path d="M7.92461 8.09668C7.57149 8.09668 7.28711 8.38105 7.28711 8.73418V12.7186C7.28711 13.0717 7.57149 13.3561 7.92461 13.3561C8.27774 13.3561 8.56212 13.0717 8.56212 12.7186V8.73418C8.56212 8.38418 8.27462 8.09668 7.92461 8.09668Z" fill="white"/>
<path d="M11.0125 8.09668C10.6594 8.09668 10.375 8.38105 10.375 8.73418V12.7186C10.375 13.0717 10.6594 13.3561 11.0125 13.3561C11.3656 13.3561 11.65 13.0717 11.65 12.7186V8.73418C11.65 8.38418 11.3656 8.09668 11.0125 8.09668Z" fill="white"/>
</g>
<defs>
<clipPath id="clip0_6_11220">
<rect width="16" height="16" fill="white"/>
</clipPath>
</defs>
</svg>
