<svg width="16" height="16" viewBox="0 0 16 16" fill="none" xmlns="http://www.w3.org/2000/svg">
<g clip-path="url(#clip0_242_766)">
<path d="M4.33268 12.6667H2.99935C2.81535 12.6667 2.66602 12.5173 2.66602 12.3333C2.66602 12.1493 2.81535 12 2.99935 12H4.33268C4.51668 12 4.66602 12.1493 4.66602 12.3333C4.66602 12.5173 4.51668 12.6667 4.33268 12.6667Z" fill="white"/>
<path d="M15.167 12.6667H14.3337C14.1497 12.6667 14.0004 12.5174 14.0004 12.3334C14.0004 12.1494 14.1497 12 14.3337 12H14.8904L15.3397 9.60535C15.3337 8.38002 14.287 7.33335 13.0004 7.33335H10.8117L9.75103 12H11.667C11.851 12 12.0004 12.1494 12.0004 12.3334C12.0004 12.5174 11.851 12.6667 11.667 12.6667H9.3337C9.23237 12.6667 9.13637 12.6207 9.07303 12.5414C9.0097 12.4627 8.9857 12.3587 9.00837 12.26L10.2204 6.92669C10.255 6.77402 10.3897 6.66669 10.5457 6.66669H13.0004C14.6544 6.66669 16.0004 8.01269 16.0004 9.66669L15.4944 12.3947C15.465 12.5527 15.3277 12.6667 15.167 12.6667Z" fill="white"/>
<path d="M13.0007 14C12.082 14 11.334 13.2527 11.334 12.3334C11.334 11.414 12.082 10.6667 13.0007 10.6667C13.9193 10.6667 14.6673 11.414 14.6673 12.3334C14.6673 13.2527 13.9193 14 13.0007 14ZM13.0007 11.3334C12.4493 11.3334 12.0007 11.782 12.0007 12.3334C12.0007 12.8847 12.4493 13.3334 13.0007 13.3334C13.552 13.3334 14.0006 12.8847 14.0006 12.3334C14.0006 11.782 13.552 11.3334 13.0007 11.3334Z" fill="white"/>
<path d="M5.66667 14C4.748 14 4 13.2527 4 12.3334C4 11.414 4.748 10.6667 5.66667 10.6667C6.58533 10.6667 7.33333 11.414 7.33333 12.3334C7.33333 13.2527 6.58533 14 5.66667 14ZM5.66667 11.3334C5.11533 11.3334 4.66667 11.782 4.66667 12.3334C4.66667 12.8847 5.11533 13.3334 5.66667 13.3334C6.218 13.3334 6.66667 12.8847 6.66667 12.3334C6.66667 11.782 6.218 11.3334 5.66667 11.3334Z" fill="white"/>
<path d="M4.33398 6.66667H1.66732C1.48332 6.66667 1.33398 6.51733 1.33398 6.33333C1.33398 6.14933 1.48332 6 1.66732 6H4.33398C4.51798 6 4.66732 6.14933 4.66732 6.33333C4.66732 6.51733 4.51798 6.66667 4.33398 6.66667Z" fill="white"/>
<path d="M4.33268 8.66667H0.999349C0.815349 8.66667 0.666016 8.51733 0.666016 8.33333C0.666016 8.14933 0.815349 8 0.999349 8H4.33268C4.51668 8 4.66602 8.14933 4.66602 8.33333C4.66602 8.51733 4.51668 8.66667 4.33268 8.66667Z" fill="white"/>
<path d="M4.33333 10.6667H0.333333C0.149333 10.6667 0 10.5173 0 10.3333C0 10.1493 0.149333 10 0.333333 10H4.33333C4.51733 10 4.66667 10.1493 4.66667 10.3333C4.66667 10.5173 4.51733 10.6667 4.33333 10.6667Z" fill="white"/>
<path d="M9.33268 12.6667H6.99935C6.81535 12.6667 6.66602 12.5174 6.66602 12.3334C6.66602 12.1494 6.81535 12 6.99935 12H9.06668L10.5813 5.33335H2.99935C2.81535 5.33335 2.66602 5.18402 2.66602 5.00002C2.66602 4.81602 2.81535 4.66669 2.99935 4.66669H10.9993C11.1007 4.66669 11.1967 4.71269 11.26 4.79202C11.3233 4.87069 11.3474 4.97469 11.3247 5.07335L9.65802 12.4067C9.62335 12.5594 9.48802 12.6667 9.33268 12.6667Z" fill="white"/>
</g>
<defs>
<clipPath id="clip0_242_766">
<rect width="16" height="16" fill="white"/>
</clipPath>
</defs>
</svg>
