<svg width="22" height="16" viewBox="0 0 22 16" fill="none" xmlns="http://www.w3.org/2000/svg">
<path d="M16.6159 9.70605C15.0868 9.70605 13.8428 10.95 13.8428 12.4792C13.8428 14.0083 15.0868 15.2523 16.6159 15.2523C18.1453 15.2523 19.389 14.0083 19.389 12.4792C19.389 10.95 18.145 9.70605 16.6159 9.70605ZM16.6159 13.8657C15.8512 13.8657 15.2293 13.2439 15.2293 12.4792C15.2293 11.7145 15.8512 11.0926 16.6159 11.0926C17.3806 11.0926 18.0025 11.7145 18.0025 12.4792C18.0025 13.2439 17.3806 13.8657 16.6159 13.8657Z" fill="#D2477F"/>
<path d="M7.14031 9.70605C5.61118 9.70605 4.36719 10.95 4.36719 12.4792C4.36719 14.0083 5.61118 15.2523 7.14031 15.2523C8.66945 15.2523 9.91344 14.0083 9.91344 12.4792C9.91344 10.95 8.66945 9.70605 7.14031 9.70605ZM7.14031 13.8657C6.37564 13.8657 5.75375 13.2439 5.75375 12.4792C5.75375 11.7145 6.37564 11.0926 7.14031 11.0926C7.90477 11.0926 8.52688 11.7145 8.52688 12.4792C8.52688 13.2439 7.90499 13.8657 7.14031 13.8657Z" fill="#D2477F"/>
<path d="M18.4828 1.7685C18.3649 1.5344 18.1253 1.38672 17.8632 1.38672H14.2119V2.77328H17.4357L19.3235 6.52808L20.5626 5.90503L18.4828 1.7685Z" fill="#D2477F"/>
<path d="M14.5359 11.8086H9.29004V13.1952H14.5359V11.8086Z" fill="#D2477F"/>
<path d="M5.06046 11.8086H2.65713C2.27419 11.8086 1.96387 12.119 1.96387 12.5019C1.96387 12.8848 2.27423 13.1951 2.65713 13.1951H5.06051C5.44345 13.1951 5.75377 12.8847 5.75377 12.5019C5.75377 12.1189 5.4434 11.8086 5.06046 11.8086Z" fill="#D2477F"/>
<path d="M21.854 7.57061L20.4904 5.81429C20.3594 5.64513 20.1572 5.54621 19.9429 5.54621H14.9051V0.69326C14.9051 0.310321 14.5947 0 14.2118 0H2.65713C2.27419 0 1.96387 0.310364 1.96387 0.69326C1.96387 1.07616 2.27423 1.38652 2.65713 1.38652H13.5185V6.23947C13.5185 6.62241 13.8289 6.93273 14.2118 6.93273H19.6034L20.6131 8.23331V11.8088H18.695C18.312 11.8088 18.0017 12.1192 18.0017 12.5021C18.0017 12.885 18.3121 13.1953 18.695 13.1953H21.3063C21.6893 13.1953 21.9996 12.885 21.9996 12.5021V7.99583C21.9996 7.84191 21.9483 7.69216 21.854 7.57061Z" fill="#D2477F"/>
<path d="M5.01518 8.2959H1.82607C1.44313 8.2959 1.13281 8.60626 1.13281 8.98916C1.13281 9.3721 1.44318 9.68242 1.82607 9.68242H5.01514C5.39808 9.68242 5.7084 9.37205 5.7084 8.98916C5.70844 8.60626 5.39808 8.2959 5.01518 8.2959Z" fill="#D2477F"/>
<path d="M6.60926 5.56934H0.69326C0.310364 5.56934 0 5.8797 0 6.26264C0 6.64558 0.310364 6.9559 0.69326 6.9559H6.60926C6.9922 6.9559 7.30252 6.64553 7.30252 6.26264C7.30252 5.87974 6.9922 5.56934 6.60926 5.56934Z" fill="#D2477F"/>
<path d="M7.74207 2.84277H1.82607C1.44313 2.84277 1.13281 3.15314 1.13281 3.53603C1.13281 3.91897 1.44318 4.22929 1.82607 4.22929H7.74207C8.12501 4.22929 8.43533 3.91893 8.43533 3.53603C8.43538 3.15314 8.12501 2.84277 7.74207 2.84277Z" fill="#D2477F"/>
</svg>
