<svg width="36" height="36" viewBox="0 0 36 36" fill="none" xmlns="http://www.w3.org/2000/svg">
<circle cx="18" cy="18" r="17.5" stroke="url(#paint0_linear_248_372)"/>
<circle cx="18.0008" cy="17.9998" r="13.2" fill="#9640E0"/>
<path d="M25.2479 19.703C25.7526 15.4545 25.0054 12.7723 23.6576 11.5592L23.6584 11.5585C21.483 9.48676 14.1365 9.18012 11.534 11.6515C10.3652 12.8604 9.95356 14.6347 9.90844 16.8312C9.86333 19.0284 9.80976 23.1443 13.6452 24.2609H13.6487L13.6452 25.9661C13.6452 25.9661 13.6191 26.6569 14.0603 26.7957C14.5651 26.9593 14.7934 26.6385 16.3633 24.7635C18.9883 24.9912 21.0044 24.4695 21.2335 24.3934C21.7636 24.2158 24.7629 23.8189 25.2479 19.703ZM16.622 23.5637C16.622 23.5637 14.9605 25.6355 14.4438 26.1733C14.2746 26.3481 14.0892 26.3319 14.0921 25.9851C14.0921 25.7574 14.1048 23.1542 14.1048 23.1542C10.853 22.2223 11.0448 18.7175 11.08 16.884C11.1152 15.0499 11.4508 13.5477 12.4405 12.5362C14.7237 10.3954 21.1644 10.874 22.8054 12.4163C24.8116 14.1948 24.0975 19.2194 24.1017 19.3907C23.6894 22.8264 21.2588 23.0442 20.8119 23.193C20.6209 23.2564 18.8481 23.7125 16.622 23.5637V23.5637Z" fill="white"/>
<path d="M17.5395 12.9385C17.2681 12.9385 17.2681 13.3614 17.5395 13.3649C19.645 13.3812 21.3791 14.8488 21.3981 17.5408C21.3981 17.8249 21.814 17.8214 21.8105 17.5373H21.8098C21.7872 14.6366 19.8939 12.9547 17.5395 12.9385V12.9385Z" fill="white"/>
<path d="M20.31 17.0944C20.3036 17.375 20.7188 17.3884 20.7223 17.1043C20.7569 15.5049 19.7707 14.1874 17.9175 14.0485C17.6461 14.0288 17.6179 14.4552 17.8886 14.475C19.4958 14.5969 20.3424 15.6938 20.31 17.0944V17.0944Z" fill="white"/>
<path d="M19.8662 18.9146C19.518 18.713 19.1634 18.8385 19.0168 19.0366L18.7102 19.4334C18.5544 19.6351 18.2632 19.6083 18.2632 19.6083C16.1387 19.0465 15.5705 16.8232 15.5705 16.8232C15.5705 16.8232 15.5444 16.5222 15.739 16.3608L16.1224 16.0436C16.3142 15.8913 16.4354 15.5247 16.2402 15.1645C15.7185 14.2221 15.3682 13.8971 15.1899 13.6476C15.0023 13.4128 14.7204 13.36 14.4271 13.5186H14.4208C13.8111 13.8753 13.1435 14.5428 13.3571 15.2301C13.7215 15.9547 14.3912 18.2647 16.5256 20.0101C17.5287 20.8355 19.1162 21.6814 19.7901 21.8767L19.7964 21.8865C20.4604 22.1079 21.1061 21.4142 21.4508 20.7862V20.7812C21.6038 20.4774 21.553 20.1898 21.3296 20.0016C20.9334 19.6153 20.3357 19.1888 19.8662 18.9146Z" fill="white"/>
<path d="M18.2054 15.6222C18.8828 15.6617 19.2113 16.0156 19.2466 16.7423C19.2593 17.0264 19.6716 17.0067 19.659 16.7226C19.6138 15.7738 19.119 15.2451 18.228 15.1958C17.9566 15.1796 17.9312 15.606 18.2054 15.6222V15.6222Z" fill="white"/>
<defs>
<linearGradient id="paint0_linear_248_372" x1="5.7541" y1="5.82787" x2="29.9508" y2="31.2049" gradientUnits="userSpaceOnUse">
<stop stop-color="#E22F38"/>
<stop offset="0.273958" stop-color="#DE33FE"/>
<stop offset="0.508333" stop-color="#16B8C3"/>
<stop offset="0.747917" stop-color="#069941"/>
<stop offset="1" stop-color="#FFEA03"/>
</linearGradient>
</defs>
</svg>
