<svg width="36" height="36" viewBox="0 0 36 36" fill="none" xmlns="http://www.w3.org/2000/svg">
<circle cx="18" cy="18" r="17.5" stroke="url(#paint0_linear_248_381)"/>
<circle cx="18.0008" cy="17.9998" r="13.2" fill="#2787F5"/>
<path d="M22.5429 18.7051C22.2906 18.3691 22.3628 18.2196 22.5429 17.9193C22.5461 17.9159 24.6281 14.8809 24.8426 13.8516L24.8439 13.8509C24.9505 13.4759 24.8439 13.2002 24.3285 13.2002H22.6228C22.1886 13.2002 21.9884 13.4368 21.8811 13.7015C21.8811 13.7015 21.0127 15.8944 19.7842 17.3159C19.3876 17.7266 19.2043 17.8583 18.9879 17.8583C18.8813 17.8583 18.7155 17.7266 18.7155 17.3515V13.8509C18.7155 13.4011 18.594 13.2002 18.2345 13.2002H15.5525C15.2802 13.2002 15.1183 13.41 15.1183 13.6055C15.1183 14.032 15.7326 14.13 15.7963 15.33V17.9337C15.7963 18.5042 15.6981 18.6091 15.4804 18.6091C14.9005 18.6091 13.4932 16.4073 12.6593 13.8873C12.4909 13.3984 12.3265 13.2009 11.889 13.2009H10.1827C9.69581 13.2009 9.59766 13.4375 9.59766 13.7021C9.59766 14.1698 10.1775 16.4951 12.2939 19.5671C13.7045 21.664 15.691 22.8002 17.498 22.8002C18.5842 22.8002 18.7168 22.5479 18.7168 22.1138C18.7168 20.1101 18.6187 19.9209 19.1627 19.9209C19.4149 19.9209 19.8492 20.0525 20.8632 21.064C22.0222 22.2633 22.2126 22.8002 22.8614 22.8002H24.567C25.0532 22.8002 25.2996 22.5479 25.1579 22.05C24.8335 21.0029 22.6417 18.8491 22.5429 18.7051V18.7051Z" fill="white"/>
<defs>
<linearGradient id="paint0_linear_248_381" x1="5.7541" y1="5.82787" x2="29.9508" y2="31.2049" gradientUnits="userSpaceOnUse">
<stop stop-color="#E22F38"/>
<stop offset="0.273958" stop-color="#DE33FE"/>
<stop offset="0.508333" stop-color="#16B8C3"/>
<stop offset="0.747917" stop-color="#069941"/>
<stop offset="1" stop-color="#FFEA03"/>
</linearGradient>
</defs>
</svg>
