<svg width="36" height="36" viewBox="0 0 36 36" fill="none" xmlns="http://www.w3.org/2000/svg">
<circle cx="18" cy="18" r="17.5" stroke="url(#paint0_linear_248_362)"/>
<circle cx="18.0008" cy="17.9998" r="13.2" fill="#29A71A"/>
<path d="M21.3049 19.384L21.2995 19.429C19.9802 18.7714 19.8422 18.6838 19.6718 18.9394C19.5536 19.1164 19.2092 19.5178 19.1054 19.6366C19.0004 19.7536 18.896 19.7626 18.7178 19.6816C18.5378 19.5916 17.96 19.4026 17.276 18.7906C16.7432 18.3136 16.3856 17.7287 16.28 17.5487C16.1042 17.2451 16.472 17.2019 16.8068 16.5683C16.8668 16.4423 16.8362 16.3433 16.7918 16.2539C16.7468 16.1639 16.3886 15.2819 16.2386 14.9303C16.0946 14.5799 15.9464 14.6243 15.8354 14.6243C15.4898 14.5943 15.2372 14.5991 15.0147 14.8307C14.0463 15.8951 14.2905 16.9931 15.1191 18.1606C16.7474 20.2918 17.615 20.6842 19.2014 21.229C19.6298 21.3652 20.0204 21.346 20.3294 21.3016C20.6738 21.247 21.3895 20.869 21.5389 20.446C21.6919 20.023 21.6919 19.672 21.6469 19.591C21.6025 19.51 21.4849 19.465 21.3049 19.384V19.384Z" fill="white"/>
<path d="M23.1126 12.8694C18.4992 8.40971 10.8644 11.6442 10.8614 17.9357C10.8614 19.1933 11.1908 20.4197 11.8184 21.5027L10.8008 25.1998L14.6017 24.2086C19.3446 26.7706 25.1981 23.3686 25.2005 17.9393C25.2005 16.0338 24.4565 14.2404 23.1036 12.8928L23.1126 12.8694ZM24.0017 17.9195C23.9981 22.4993 18.9708 25.3594 14.9947 23.0218L14.7787 22.8934L12.5288 23.4784L13.1317 21.2915L12.9883 21.0665C10.514 17.1276 13.3567 11.9796 18.0439 11.9796C19.6362 11.9796 21.1308 12.6006 22.2564 13.7256C23.3814 14.841 24.0017 16.3356 24.0017 17.9195V17.9195Z" fill="white"/>
<defs>
<linearGradient id="paint0_linear_248_362" x1="5.7541" y1="5.82787" x2="29.9508" y2="31.2049" gradientUnits="userSpaceOnUse">
<stop stop-color="#E22F38"/>
<stop offset="0.273958" stop-color="#DE33FE"/>
<stop offset="0.508333" stop-color="#16B8C3"/>
<stop offset="0.747917" stop-color="#069941"/>
<stop offset="1" stop-color="#FFEA03"/>
</linearGradient>
</defs>
</svg>
